<?xml version="1.0" standalone="no"?>
<!DOCTYPE svg PUBLIC "-//W3C//DTD SVG 20010904//EN"
 "http://www.w3.org/TR/2001/REC-SVG-20010904/DTD/svg10.dtd">
<svg version="1.0" xmlns="http://www.w3.org/2000/svg"
 width="1125" height="695" viewBox="0 0 1125.000000 695.000000"
 preserveAspectRatio="xMidYMid meet">
<metadata>
Created by potrace 1.16, written by Peter Selinger 2001-2019
</metadata>
<g transform="translate(0.000000,695.000000) scale(0.100000,-0.100000)"
fill="#ffffff" stroke="none">
<path d="M2780 6613 c-18 -21 -121 -132 -229 -248 -109 -115 -336 -361 -506
-545 -170 -184 -412 -447 -539 -583 -127 -137 -232 -253 -234 -258 -2 -5 100
-9 242 -9 l246 0 0 -490 c0 -269 4 -490 8 -490 5 0 20 13 35 28 l27 28 0 476
0 475 443 7 c243 3 550 9 682 14 l240 7 -375 6 c-206 3 -513 7 -682 8 l-308 1
0 39 0 38 83 6 c45 4 177 7 292 8 264 0 347 12 160 22 -71 4 -184 7 -250 7
-66 0 -157 3 -202 7 -91 7 -100 15 -63 63 l19 25 313 10 c172 6 305 13 295 18
-10 4 -143 7 -295 7 l-277 0 47 47 48 47 107 4 c60 2 155 7 213 11 l105 8
-130 3 c-71 1 -161 5 -198 9 l-68 6 44 43 44 43 114 5 c196 8 222 18 63 24
l-142 5 38 44 39 45 109 5 c61 3 114 9 118 14 4 4 -39 7 -97 7 l-104 0 51 51
50 50 407 6 c224 3 407 10 407 15 0 4 -118 9 -262 9 -145 1 -321 4 -391 8
l-128 6 43 42 43 42 315 8 c173 4 306 8 295 10 -11 1 -141 7 -289 13 -149 6
-272 13 -275 16 -3 2 12 21 32 42 l37 37 168 7 c256 10 260 11 64 18 -100 4
-185 10 -189 14 -4 4 11 24 32 46 39 38 42 39 135 47 l95 8 -82 5 -81 5 57 64
58 65 109 -105 c60 -57 183 -174 274 -259 90 -85 203 -192 250 -236 47 -45
193 -183 325 -307 240 -226 240 -226 285 -226 l45 0 -71 67 c-40 37 -188 177
-330 312 -143 134 -290 274 -329 310 -38 37 -160 152 -270 257 -272 258 -295
278 -304 267 -50 -58 -504 -541 -919 -979 l-152 -159 0 -98 0 -98 -172 0 -172
0 45 48 c25 26 212 227 415 447 202 220 427 463 499 540 71 77 202 218 289
313 88 94 164 172 168 172 8 0 421 -388 938 -880 543 -517 517 -494 571 -500
27 -3 49 -3 49 0 0 6 -171 170 -515 496 -110 104 -361 341 -558 528 -197 186
-357 340 -355 342 2 2 64 -12 138 -30 123 -29 139 -36 180 -73 114 -104 1289
-1145 1349 -1195 25 -21 51 -38 59 -38 8 0 76 58 151 128 75 71 237 220 361
333 408 371 821 744 843 761 12 10 83 31 162 47 l140 29 -191 -186 c-105 -103
-403 -394 -663 -646 -259 -253 -471 -462 -471 -465 0 -4 22 -4 49 -1 l48 5
579 565 c319 311 619 604 669 652 l90 87 479 -487 c264 -268 592 -600 729
-738 137 -138 245 -253 241 -255 -5 -2 -84 -3 -176 -1 l-168 3 0 92 -1 92
-554 559 -554 559 -313 -309 c-172 -170 -434 -429 -583 -576 l-270 -268 44 0
45 0 285 283 c481 476 780 767 788 767 5 0 35 -26 68 -57 l59 -58 -50 -6 -49
-6 55 -1 c52 -2 59 -5 100 -47 l44 -45 -134 -1 c-83 -1 -125 -4 -110 -9 14 -4
79 -8 145 -9 l121 -1 49 -50 49 -50 -84 -1 c-47 -1 -168 -5 -270 -8 -148 -6
-164 -8 -80 -9 58 -2 188 -7 289 -12 l185 -9 43 -43 44 -43 -358 -5 c-197 -3
-347 -8 -333 -12 14 -3 184 -11 379 -16 l354 -11 44 -43 44 -43 -43 -7 c-24
-3 -70 -7 -103 -9 l-60 -2 55 -7 c30 -5 84 -8 120 -9 65 -1 66 -1 115 -51 l49
-50 -159 -2 c-146 -1 -152 -2 -75 -9 47 -4 122 -7 168 -8 l82 -1 47 -42 46
-43 -59 -6 c-32 -4 -131 -7 -218 -8 -88 -1 -157 -3 -154 -6 3 -3 111 -10 239
-16 l234 -10 43 -42 43 -42 -73 -6 c-40 -4 -147 -7 -238 -8 -267 -4 -227 -17
66 -23 174 -4 279 -10 293 -17 15 -8 21 -21 21 -45 l0 -33 -127 -6 c-71 -4
-204 -8 -298 -8 -145 -2 -160 -3 -100 -10 39 -5 174 -12 300 -16 l230 -8 3
-42 3 -43 -358 -1 c-372 -2 -1044 -14 -913 -17 41 -1 311 -6 600 -12 289 -6
558 -13 598 -16 l72 -6 0 -331 0 -331 27 -28 c15 -15 30 -28 34 -28 4 0 5 162
2 360 l-6 360 257 0 c141 0 256 3 256 7 0 10 -101 114 -892 914 l-717 726
-153 -33 c-84 -19 -263 -56 -398 -83 -326 -67 -831 -171 -1061 -219 l-187 -39
-508 117 c-911 210 -1309 300 -1325 300 -10 0 -32 -17 -49 -37z m764 -199
l160 -36 350 -307 c193 -168 406 -353 474 -410 l122 -105 0 -81 c0 -45 3 -117
7 -161 l6 -78 -45 39 c-25 22 -230 211 -454 420 -225 208 -431 400 -459 425
-134 124 -355 333 -355 335 0 4 -9 6 194 -41z m2390 -5 c-10 -12 -179 -173
-374 -357 -376 -355 -497 -471 -701 -670 l-126 -123 -6 77 c-4 42 -7 116 -7
164 l0 86 421 375 c232 206 429 378 438 383 12 8 156 41 370 85 2 1 -4 -9 -15
-20z m-1941 -95 c89 -20 170 -40 179 -45 10 -5 66 -51 125 -102 60 -51 161
-136 226 -190 l117 -99 1 -121 c0 -67 3 -134 5 -149 3 -16 2 -28 -1 -28 -7 0
-825 759 -825 766 0 6 0 6 173 -32z m1377 -87 c-58 -56 -226 -218 -375 -360
-310 -296 -282 -287 -284 -86 l-1 116 82 69 c45 38 139 119 209 181 l127 112
163 35 c90 19 169 35 174 35 6 0 -37 -45 -95 -102z m-753 -61 c10 -4 13 -35
13 -126 l0 -121 -175 161 c-96 89 -175 163 -175 165 0 3 317 -72 337 -79z
m298 -39 c-66 -62 -139 -130 -161 -150 l-41 -37 -7 31 c-3 17 -6 69 -6 115 l0
83 58 11 c31 7 102 23 157 35 55 13 104 24 110 24 5 1 -45 -50 -110 -112z
M2709 6342 c-219 -226 -1084 -1157 -1163 -1252 l-21 -25 24 20 c37 31 1054
1118 1270 1358 14 15 22 27 19 27 -3 0 -61 -58 -129 -128z M6450 6431 c0 -10
387 -405 1088 -1111 140 -140 252 -250 250 -243 -3 13 -95 107 -825 847 -282
285 -513 514 -513 507z M3002 5652 l-102 -3 2 -267 3 -267 128 -3 127 -3 0
270 0 269 -27 3 c-16 2 -74 3 -131 1z m18 -118 l0 -64 -35 0 -35 0 0 64 c0 63
1 65 28 68 15 2 30 2 35 0 4 -2 7 -32 7 -68z m90 1 l0 -65 -30 0 -30 0 0 65 0
65 30 0 30 0 0 -65z m-90 -150 l0 -65 -35 0 -35 0 0 65 0 65 35 0 35 0 0 -65z
m90 0 l0 -65 -30 0 -30 0 0 65 0 65 30 0 30 0 0 -65z m-95 -161 l0 -69 -30 0
c-30 0 -30 1 -33 59 -4 74 -1 82 34 81 29 -2 29 -2 29 -71z m95 -4 l0 -70 -30
0 -30 0 0 70 0 70 30 0 30 0 0 -70z M2572 5383 l3 -268 128 -3 127 -3 0 271 0
270 -130 0 -130 0 2 -267z m118 152 l0 -65 -30 0 -30 0 0 65 0 65 30 0 30 0 0
-65z m90 0 l0 -65 -30 0 -30 0 0 65 0 65 30 0 30 0 0 -65z m-90 -151 l0 -65
-32 3 c-18 2 -32 6 -30 11 1 4 2 32 2 62 0 54 0 55 30 55 l30 0 0 -66z m90 1
l0 -65 -30 0 -30 0 0 65 0 65 30 0 30 0 0 -65z m-92 -162 c-3 -67 -3 -68 -32
-68 -28 0 -28 0 -30 68 l-1 67 33 0 33 0 -3 -67z m90 0 c-3 -66 -4 -68 -30
-71 l-28 -3 0 70 0 71 30 0 31 0 -3 -67z M6195 5627 c-3 -7 -4 -131 -3 -277
l3 -265 128 -3 127 -3 0 281 0 280 -125 0 c-92 0 -127 -3 -130 -13z m105 -107
l0 -70 -30 0 -30 0 0 70 0 70 30 0 30 0 0 -70z m100 -1 l0 -70 -32 3 c-33 3
-33 4 -35 58 -2 73 1 80 37 80 l30 0 0 -71z m-100 -154 l0 -65 -30 0 -30 0 0
65 0 65 30 0 30 0 0 -65z m100 0 l0 -65 -35 0 -35 0 0 58 c0 32 3 62 7 65 3 4
19 7 35 7 28 0 28 0 28 -65z m-100 -160 l0 -75 -30 0 -30 0 0 75 0 75 30 0 30
0 0 -75z m100 -1 l0 -75 -32 3 -33 3 -3 73 -3 72 36 0 35 0 0 -76z M6520 5360
l0 -281 128 3 127 3 3 278 2 277 -130 0 -130 0 0 -280z m110 160 l0 -70 -30 0
-30 0 0 70 0 70 30 0 30 0 0 -70z m100 0 l0 -70 -35 0 -35 0 0 70 0 70 35 0
35 0 0 -70z m-100 -155 l0 -65 -30 0 -30 0 0 65 0 65 30 0 30 0 0 -65z m98 -2
l3 -63 -36 0 -35 0 0 66 0 65 33 -3 c32 -3 32 -3 35 -65z m-98 -158 l0 -75
-30 0 -30 0 0 75 0 75 30 0 30 0 0 -75z m98 3 l-3 -73 -32 -3 -33 -3 0 75 0
76 35 0 36 0 -3 -72z M4510 5104 c-36 -8 -88 -19 -117 -25 -55 -11 -113 -54
-113 -83 0 -23 -8 -20 -36 13 -54 64 -167 61 -279 -6 -58 -35 -65 -37 -180
-43 -127 -7 -180 -21 -305 -81 -36 -17 -94 -42 -130 -54 -98 -35 -173 -70
-193 -93 -10 -11 -28 -39 -40 -63 -29 -56 -50 -64 -36 -14 27 98 -13 137 -99
96 -116 -56 -342 -232 -342 -266 0 -19 -53 -40 -159 -65 -178 -41 -258 -99
-527 -380 -123 -129 -173 -193 -224 -286 -29 -53 -72 -109 -131 -169 -48 -49
-94 -108 -103 -129 -20 -48 -13 -118 14 -157 l19 -27 -69 -4 c-87 -5 -93 -10
-207 -187 -87 -135 -108 -182 -143 -316 -11 -38 -30 -110 -44 -160 -14 -49
-28 -117 -32 -150 -8 -86 -32 -143 -65 -161 -63 -32 -126 -168 -149 -321 -7
-43 -24 -121 -40 -173 -42 -143 -65 -391 -44 -482 6 -29 8 -30 15 -13 4 11 8
36 8 55 1 19 8 58 17 85 8 28 19 93 24 145 5 53 20 130 35 175 15 44 31 118
36 165 18 146 79 324 117 337 9 3 51 20 92 38 78 35 130 50 130 39 0 -15 -57
-54 -73 -50 -30 7 -157 -114 -157 -151 0 -7 5 -13 10 -13 6 0 10 3 10 8 0 12
84 100 107 111 32 16 33 15 12 -40 -25 -64 -5 -63 31 3 15 27 58 73 105 113
44 37 82 71 85 74 15 19 60 39 78 35 29 -8 38 14 10 25 -21 9 -21 10 9 10 19
1 36 -5 41 -15 7 -13 15 -8 44 28 32 39 73 66 121 82 9 3 17 9 17 14 0 13 -63
2 -81 -14 -9 -9 -24 -12 -34 -8 -11 5 -22 1 -30 -10 -12 -15 -13 -15 -18 4 -3
11 -13 23 -22 26 -17 7 -30 2 -137 -53 -37 -19 -80 -36 -95 -39 -16 -3 -41
-14 -56 -25 l-29 -21 12 22 c15 27 27 179 13 165 -12 -12 -33 -85 -33 -113 0
-11 -9 -42 -21 -69 -20 -46 -22 -47 -30 -24 -6 16 -6 28 1 35 5 5 10 28 10 50
0 23 9 70 19 106 11 36 31 114 45 173 20 89 33 122 73 183 26 42 69 110 94
152 54 88 82 107 174 117 54 5 71 3 112 -16 26 -12 61 -24 77 -26 29 -3 92
-34 135 -65 25 -19 56 -25 46 -9 -9 16 -97 73 -135 88 -27 10 -29 12 -7 8 31
-6 37 10 7 20 -11 3 -50 8 -88 10 -37 2 -78 8 -92 13 l-25 10 28 7 29 8 -27
21 c-32 26 -45 93 -24 134 7 15 52 68 99 117 57 59 106 123 143 186 71 121 95
150 275 332 182 184 310 275 405 290 60 9 140 51 189 98 25 24 67 58 94 76 27
17 92 61 145 97 53 36 108 68 122 71 24 6 26 5 25 -21 -1 -16 1 -41 5 -56 6
-22 4 -26 -8 -22 -12 5 -15 -4 -15 -54 0 -63 -6 -74 -65 -122 -29 -24 -29 -24
3 11 19 21 35 51 39 72 7 43 -3 49 -18 11 -16 -45 -20 -20 -4 26 13 38 13 46
1 58 -12 12 -16 10 -32 -13 -11 -14 -29 -39 -42 -55 -33 -42 -85 -230 -63
-230 6 0 11 -7 11 -15 0 -8 -4 -15 -10 -15 -9 0 -16 20 -23 70 -3 21 -5 17
-16 -20 -14 -49 -7 -212 10 -218 5 -2 9 -11 9 -20 1 -9 7 -28 15 -42 14 -24
14 -24 15 22 0 26 -4 49 -9 53 -14 8 -4 124 12 138 16 15 41 31 89 57 51 27
106 77 124 111 8 16 12 29 8 29 -4 0 -35 -26 -69 -59 -34 -32 -72 -61 -84 -64
-33 -8 -21 9 34 51 27 21 60 53 73 72 52 80 176 190 213 190 19 0 127 55 148
76 29 27 3 24 -58 -7 -35 -17 -75 -32 -91 -33 -20 -1 -53 -23 -111 -74 -59
-52 -85 -69 -91 -60 -5 8 -1 17 9 23 10 6 47 38 83 71 44 42 88 71 137 93 39
17 74 31 78 31 4 0 68 27 144 59 142 62 197 74 331 75 72 1 79 3 165 54 86 51
92 53 145 48 46 -5 60 -11 83 -39 15 -17 32 -48 37 -67 5 -19 15 -55 22 -80
l12 -45 8 80 c5 44 17 93 26 110 44 75 167 91 638 82 118 -2 177 -7 187 -15 9
-8 17 -40 22 -86 5 -54 12 -79 26 -92 18 -16 19 -16 25 0 4 10 4 51 1 92 -8
110 -13 109 333 52 36 -6 70 -14 75 -18 6 -4 39 -13 73 -19 117 -23 169 -49
242 -123 37 -37 71 -68 76 -68 5 0 23 -7 39 -16 45 -24 104 -44 165 -57 l55
-12 57 -95 c65 -108 123 -166 182 -182 29 -8 45 -19 56 -40 8 -16 18 -29 23
-29 4 1 30 -10 58 -24 55 -29 82 -29 55 -2 -20 20 -10 22 19 4 11 -7 20 -23
20 -37 0 -21 4 -25 25 -23 21 2 23 1 8 -8 -19 -11 -25 -39 -8 -39 6 0 10 -11
10 -24 0 -14 5 -28 10 -31 6 -3 10 -15 10 -26 0 -31 53 -199 62 -199 10 0 5
97 -6 107 -3 3 -6 23 -6 44 0 21 -4 48 -9 61 -5 13 -17 48 -25 79 -22 74 -58
125 -107 150 -47 24 -129 96 -129 113 0 17 -48 60 -85 77 -31 15 -90 104 -61
93 8 -3 22 -17 31 -30 9 -14 20 -22 25 -19 5 3 14 -3 19 -14 6 -11 21 -23 32
-26 12 -4 48 -27 81 -52 59 -46 88 -52 52 -12 -10 12 -37 34 -60 48 -58 37
-108 81 -101 88 4 3 27 -12 53 -33 68 -58 107 -84 113 -78 9 9 -95 99 -142
124 -23 12 -50 34 -61 47 l-19 25 24 -7 c45 -13 364 -177 450 -231 47 -30 118
-67 158 -83 89 -37 245 -154 312 -234 54 -64 91 -128 87 -149 -3 -13 -59 -31
-67 -22 -3 3 -4 30 -4 62 1 48 -3 65 -29 105 -18 29 -37 47 -49 47 -10 0 -19
4 -19 10 0 26 -231 152 -248 135 -7 -7 11 -26 29 -29 55 -9 220 -141 239 -191
25 -66 22 -70 -20 -22 -39 45 -96 84 -106 74 -3 -3 10 -18 29 -33 18 -16 44
-44 57 -63 l23 -33 -52 36 c-36 26 -51 32 -51 21 0 -8 12 -25 27 -38 49 -40
92 -91 83 -97 -5 -3 -8 -29 -8 -57 1 -39 6 -53 17 -56 13 -3 12 -5 -4 -11 -52
-20 -69 -34 -91 -78 -13 -26 -20 -49 -15 -53 11 -6 151 127 151 144 0 6 6 11
14 11 9 0 12 -7 9 -20 -4 -16 0 -20 18 -20 18 0 20 -3 11 -12 -26 -26 -14 -38
33 -31 30 4 45 2 45 -5 0 -18 -36 -32 -68 -26 -29 6 -92 -18 -92 -35 0 -9 65
-5 129 8 44 8 86 76 77 122 -20 97 -21 89 13 89 51 0 141 -53 217 -126 68 -67
267 -351 300 -429 7 -19 18 -36 24 -40 6 -3 17 -21 26 -38 l16 -32 -31 29
c-17 17 -31 34 -31 39 0 6 -14 28 -30 51 -17 23 -56 79 -87 126 -57 86 -213
259 -245 272 -34 14 -18 -13 55 -90 41 -42 89 -99 108 -127 19 -27 46 -68 62
-90 62 -90 135 -206 124 -197 -7 5 -23 12 -37 15 -33 8 -83 56 -111 107 -25
43 -39 51 -39 21 0 -22 86 -140 110 -152 8 -4 37 -16 63 -26 26 -10 54 -28 63
-40 18 -28 0 -31 -22 -4 -9 10 -24 16 -35 14 -45 -12 -136 83 -198 205 -20 39
-60 87 -124 150 -97 93 -155 128 -82 50 22 -24 63 -68 91 -98 63 -68 94 -119
94 -156 1 -17 13 -43 30 -63 35 -41 31 -55 -5 -21 -14 13 -27 21 -29 19 -9 -8
53 -90 104 -139 29 -27 46 -51 40 -55 -5 -3 -10 -21 -10 -38 0 -18 -6 -56 -14
-85 -7 -29 -10 -55 -5 -58 4 -2 13 15 20 38 6 24 15 52 21 64 5 11 8 24 7 30
-4 16 13 44 27 44 15 0 19 -16 5 -24 -10 -7 -30 -78 -36 -126 -6 -60 -38 -160
-62 -195 -26 -39 -12 -47 15 -9 25 35 40 75 69 184 l10 35 7 -50 c8 -59 -7
-104 -60 -173 -42 -56 -37 -67 8 -17 48 55 68 87 68 112 0 12 4 24 9 28 5 3 7
21 4 41 -3 19 0 52 7 73 11 35 15 38 44 35 17 -1 36 -3 43 -3 6 -1 43 -28 82
-61 41 -36 101 -75 147 -96 112 -51 130 -66 153 -132 12 -31 28 -69 37 -85 8
-15 28 -79 44 -143 21 -82 43 -141 77 -202 l47 -87 7 -185 c7 -193 8 -199 58
-319 28 -68 31 -82 30 -180 -1 -76 3 -119 15 -153 14 -39 15 -56 6 -88 -6 -22
-15 -40 -20 -40 -5 0 -21 -12 -37 -26 -24 -23 -33 -25 -78 -19 -27 4 -70 15
-95 25 -25 10 -61 21 -82 25 -24 3 -49 18 -72 42 -19 20 -39 33 -43 29 -4 -4
7 -21 25 -37 38 -34 39 -38 9 -32 -13 3 -31 18 -41 33 -28 49 -44 60 -75 54
-34 -7 -74 25 -65 51 4 8 2 15 -4 15 -6 0 -12 -5 -14 -12 -3 -8 -14 -6 -35 7
-35 20 -66 87 -57 120 3 11 -2 29 -11 40 -16 19 -16 19 -11 -10 6 -28 5 -29
-9 -11 -8 11 -15 27 -16 35 -1 31 -8 54 -18 64 -17 17 -26 -22 -13 -56 10 -27
9 -29 -9 -24 -20 5 -21 2 -17 -89 2 -77 1 -91 -9 -77 -7 9 -13 37 -14 62 0 25
-4 55 -9 66 -5 13 -3 26 7 37 13 14 13 23 4 50 -10 27 -9 35 4 44 16 12 21 29
5 19 -14 -8 -13 18 2 50 9 20 8 31 -2 50 -7 14 -17 25 -22 25 -5 0 -4 -8 1
-18 11 -21 -1 -88 -19 -106 -10 -8 -11 -1 -6 34 6 53 -4 112 -22 118 -6 2 -12
-3 -12 -12 0 -9 -4 -16 -10 -16 -5 0 -10 -7 -10 -15 0 -8 -7 -15 -15 -15 -12
0 -15 11 -14 54 1 29 -1 58 -5 65 -5 7 3 20 18 32 14 11 26 30 26 43 0 12 4
26 10 32 5 5 6 22 1 39 l-8 30 -17 -37 c-17 -36 -36 -50 -36 -28 0 6 4 10 8
10 9 0 32 59 32 82 0 9 7 24 16 33 15 15 15 19 -2 55 -11 22 -25 40 -33 40
-10 0 -10 -6 4 -26 15 -24 15 -28 0 -67 -32 -82 -74 -97 -53 -20 11 42 2 107
-18 124 -8 6 -14 19 -14 28 0 9 -9 22 -20 29 -15 9 -18 19 -14 41 5 23 2 32
-15 41 -12 6 -31 8 -41 5 -12 -4 -20 -2 -20 5 0 6 5 8 10 5 6 -3 10 -4 10 -1
0 8 -71 48 -76 43 -3 -3 3 -12 15 -19 22 -14 29 -48 9 -48 -7 0 -6 -6 4 -17 8
-10 19 -30 26 -45 6 -16 16 -28 22 -28 13 0 13 12 0 44 -13 35 2 33 23 -3 12
-20 14 -30 6 -33 -17 -6 7 -48 27 -48 22 0 35 -46 32 -117 -1 -46 -7 -67 -17
-73 -9 -5 -13 -12 -9 -15 4 -4 -5 -27 -19 -52 -22 -40 -25 -58 -26 -151 -1
-75 4 -124 16 -166 10 -32 15 -61 13 -63 -3 -3 -17 19 -33 49 -26 49 -28 61
-26 152 2 84 17 167 40 226 9 23 13 103 7 120 -5 11 -9 9 -14 -10 l-8 -25 -1
27 c-1 14 -6 28 -12 30 -5 2 -14 30 -18 62 -7 50 -13 63 -43 90 -30 26 -118
145 -118 159 0 3 -18 36 -40 73 -45 77 -49 100 -20 109 11 3 28 17 39 31 10
13 24 24 30 24 6 0 11 3 11 8 -1 9 -86 72 -99 72 -6 0 -13 12 -17 28 -4 15
-13 33 -22 40 -14 11 -14 12 0 12 10 0 21 -14 28 -35 11 -33 30 -48 30 -23 0
6 14 -1 30 -17 20 -19 30 -24 30 -14 0 8 -5 20 -12 27 -28 28 5 9 47 -28 57
-50 75 -52 39 -4 -24 30 -25 35 -9 32 10 -1 29 -13 41 -25 28 -28 53 -32 33
-5 -57 75 -157 149 -186 138 -10 -4 -14 -4 -11 0 9 8 -25 35 -72 56 -19 9 -48
30 -65 46 -16 16 -40 32 -53 36 -12 4 -38 31 -56 61 -31 47 -68 76 -82 62 -6
-5 32 -144 53 -195 l15 -37 -22 21 c-12 12 -50 64 -84 115 -33 51 -68 95 -76
97 -10 3 -8 -3 7 -19 12 -13 31 -45 42 -70 22 -49 100 -172 130 -204 10 -11
25 -33 33 -50 8 -16 23 -48 34 -69 10 -22 25 -41 32 -44 19 -6 14 12 -13 52
-36 53 -31 60 17 26 22 -16 47 -30 55 -30 7 0 13 -4 13 -10 0 -5 -7 -10 -16
-10 -12 0 -15 -6 -10 -22 4 -13 13 -46 21 -75 8 -28 37 -106 65 -171 49 -117
64 -192 40 -207 -5 -3 -10 2 -10 11 0 11 -3 14 -9 8 -5 -5 -5 -65 -1 -140 6
-99 12 -142 29 -179 25 -56 34 -56 21 0 -5 22 -9 83 -8 135 1 90 1 92 8 35 9
-75 29 -141 68 -225 16 -36 35 -92 42 -125 6 -33 16 -78 21 -101 4 -22 9 -134
9 -247 1 -145 5 -207 12 -207 7 0 26 5 44 12 38 13 94 0 156 -39 48 -30 53
-29 29 5 -23 33 -56 166 -71 282 -5 47 -12 101 -15 120 -3 22 4 10 20 -35 14
-38 30 -110 36 -160 13 -104 38 -162 77 -175 15 -6 38 -16 52 -24 85 -47 194
-55 290 -21 51 18 190 20 240 4 19 -7 104 -17 189 -23 102 -7 156 -15 158 -23
3 -7 -10 -15 -31 -18 -56 -11 -257 2 -296 18 -52 22 -220 32 -275 17 -50 -14
-59 -30 -17 -30 15 0 33 -4 40 -8 25 -17 -22 -39 -117 -56 -87 -16 -99 -16
-167 0 -64 14 -85 14 -156 4 -46 -7 -126 -15 -178 -17 -52 -3 -99 -9 -104 -14
-6 -6 -3 -9 10 -9 10 -1 64 -5 119 -11 124 -12 159 -12 163 1 5 14 35 13 117
-5 89 -19 159 -19 221 0 27 8 57 15 67 15 28 0 87 50 87 72 0 17 4 19 23 13
12 -4 36 -9 52 -12 17 -3 40 -14 52 -25 16 -15 26 -17 39 -10 13 7 21 6 29 -5
16 -21 163 -30 171 -10 4 11 20 13 75 9 38 -2 69 -1 69 4 0 5 -18 10 -40 12
-22 1 -50 7 -62 12 -20 9 -20 10 7 5 17 -3 48 1 70 9 25 9 47 11 62 5 12 -4
25 -5 27 0 8 12 -4 21 -25 21 -12 0 -16 5 -13 15 9 23 22 18 71 -25 25 -22 55
-40 67 -41 12 0 60 -4 109 -7 48 -4 87 -4 87 -1 0 23 -86 52 -176 58 -7 1 -30
19 -52 40 -32 31 -50 40 -91 46 -47 6 -51 9 -44 28 11 32 5 95 -13 144 -15 39
-16 52 -4 115 16 83 8 120 -55 272 -37 89 -38 91 -32 195 9 163 -5 239 -63
347 -34 64 -55 119 -69 182 -11 50 -29 108 -39 129 -11 21 -26 58 -33 82 -20
66 -96 143 -182 185 -40 19 -86 37 -103 39 -27 4 -74 23 -74 30 0 1 24 2 52 2
50 0 53 2 56 27 4 30 -20 80 -81 172 -23 35 -58 89 -77 121 -61 99 -182 279
-212 315 -16 19 -60 76 -98 125 -139 184 -249 268 -348 267 -46 0 -53 2 -46
16 20 45 2 89 -81 195 -47 60 -200 170 -307 220 -53 25 -118 60 -144 78 -40
27 -244 139 -368 201 -60 30 -194 68 -242 68 -32 0 -49 6 -68 25 -13 13 -36
27 -50 31 -36 9 -106 -3 -147 -25 l-34 -18 -78 68 c-98 87 -145 111 -287 144
-63 15 -137 34 -165 43 -35 11 -96 16 -205 17 -94 1 -167 7 -185 14 -18 8 -73
12 -140 11 -60 -1 -184 1 -275 4 -123 3 -181 1 -230 -10z m1758 -306 c7 -7 12
-21 12 -33 0 -12 11 -36 25 -55 14 -19 25 -35 25 -37 0 -6 -39 17 -45 27 -3 5
-36 19 -73 30 -37 11 -83 29 -102 39 l-35 19 35 10 c50 14 144 14 158 0z m190
-98 c13 -16 19 -30 14 -30 -12 0 -52 39 -52 50 0 19 16 10 38 -20z m2 -224 c0
-11 -25 17 -61 69 -13 19 -6 14 20 -14 23 -24 41 -49 41 -55z m924 -557 c-9
-14 -34 9 -34 32 0 18 1 18 20 -1 12 -12 18 -25 14 -31z m136 -77 c0 -14 -23
-32 -42 -32 -10 0 -18 6 -18 14 0 13 9 17 53 25 4 0 7 -3 7 -7z m615 -662 c39
-26 16 -26 -32 0 -27 14 -32 20 -18 20 11 0 34 -9 50 -20z m129 -39 c20 -27
38 -64 41 -82 4 -28 4 -30 -3 -9 -15 43 -39 84 -61 104 -19 17 -28 36 -17 36
2 0 20 -22 40 -49z m-187 -86 c-7 -13 -14 -20 -15 -14 -5 14 6 39 17 39 5 0 4
-11 -2 -25z m-427 -205 c0 -14 -14 -12 -28 2 -19 19 -14 30 8 18 11 -6 20 -15
20 -20z m-6186 -306 c8 -20 10 -19 -39 -31 -22 -6 -48 -14 -57 -18 -38 -15
-16 14 22 31 22 10 40 21 40 26 0 15 28 8 34 -8z m6475 -576 c-9 -16 -14 -19
-17 -9 -2 7 2 17 9 22 20 13 21 11 8 -13z m-25 -235 c4 -9 3 -20 -2 -25 -6 -6
-11 1 -14 16 -6 29 6 35 16 9z m55 -76 c0 -77 -16 -140 -20 -82 -1 25 -1 128
1 158 0 5 5 5 10 2 6 -3 10 -39 9 -78z m56 -17 c3 -6 2 -10 -3 -10 -14 0 -22
26 -21 68 l1 37 9 -43 c4 -23 11 -47 14 -52z m-216 -140 c-1 -23 -2 -22 -9 5
-4 17 -11 39 -14 50 -5 13 -2 12 8 -5 8 -14 15 -36 15 -50z m346 -10 c9 -16
12 -30 7 -30 -4 0 -13 14 -19 30 -6 17 -10 30 -7 30 2 0 10 -13 19 -30z m-159
-87 c-11 -11 -17 4 -9 23 7 18 8 18 11 1 2 -10 1 -21 -2 -24z m187 -61 c13 -7
7 -21 -7 -16 -14 5 -30 38 -40 84 -4 14 4 5 16 -20 13 -25 26 -46 31 -48z
m110 2 c23 -22 31 -34 21 -34 -20 0 -104 58 -104 71 0 18 43 -2 83 -37z m-273
3 c0 -18 -2 -19 -10 -7 -13 20 -13 43 0 35 6 -3 10 -16 10 -28z m406 -69 c-11
-6 -22 -6 -32 2 -24 21 -16 30 17 18 27 -9 29 -12 15 -20z m-227 -46 c-5 -2
-17 2 -25 9 -13 10 -17 10 -24 0 -4 -8 -13 -10 -19 -7 -16 10 -13 29 4 23 8
-4 17 -2 20 3 4 6 16 3 30 -7 13 -10 19 -20 14 -21z m392 -62 c10 -6 19 -16
19 -22 0 -7 -4 -7 -12 0 -7 6 -29 15 -48 20 -33 10 -34 10 -7 11 16 1 37 -4
48 -9z M4737 5004 c-13 -13 104 -32 246 -40 129 -7 159 0 94 24 -40 14 -329
28 -340 16z M5274 4969 c-3 -5 6 -9 20 -9 31 0 34 6 6 13 -11 3 -23 1 -26 -4z
M5474 4957 c8 -12 37 -30 63 -39 47 -16 199 -48 231 -48 53 0 -81 45 -159 54
-30 3 -77 17 -102 31 -47 24 -47 24 -33 2z M4428 4961 c-42 -9 -99 -42 -80
-49 6 -2 28 2 48 8 19 7 38 10 41 7 9 -10 -8 -27 -26 -27 -11 0 -29 -9 -42
-20 -23 -18 -23 -19 -4 -19 11 0 45 8 75 19 30 10 58 16 62 14 11 -7 -13 -30
-40 -38 -23 -8 -30 -26 -9 -26 24 0 89 27 98 41 6 10 32 14 98 14 49 0 87 3
85 6 -8 14 -104 31 -134 24 -25 -5 -29 -4 -24 9 6 16 -7 19 -81 17 l-30 0 30
14 30 14 -30 -1 c-16 0 -46 -4 -67 -7z M5364 4935 c21 -16 32 -13 21 4 -3 6
-14 11 -23 11 -15 -1 -15 -2 2 -15z M5270 4928 c0 -7 -3 -23 -6 -35 -5 -17 -2
-23 10 -23 9 0 20 8 23 18 4 9 11 20 17 25 7 5 6 10 -4 17 -21 14 -40 12 -40
-2z M2010 4563 l0 -327 30 29 30 29 0 128 0 128 60 0 60 0 0 -70 c0 -56 3 -70
15 -70 12 0 15 14 15 70 l0 70 60 0 60 0 0 -35 c0 -36 10 -42 44 -29 14 5 16
33 16 205 l0 199 -195 0 -195 0 0 -327z m180 142 l0 -125 -60 0 -60 0 0 125 0
125 60 0 60 0 0 -125z m150 0 l0 -125 -60 0 -60 0 0 125 0 125 60 0 60 0 0
-125z M2570 4735 c0 -85 3 -155 8 -155 4 1 17 9 30 19 20 18 22 28 22 125 l0
106 60 0 60 0 0 -56 c0 -49 2 -55 15 -44 9 8 15 30 15 56 l0 44 80 0 c68 0 81
3 90 19 21 40 16 41 -185 41 l-195 0 0 -155z M4090 4870 c-21 -12 -56 -19 -87
-20 -28 0 -59 -3 -69 -7 -16 -6 -16 -7 2 -14 17 -7 17 -8 2 -8 -10 -1 -18 -5
-18 -10 0 -5 -14 -11 -30 -15 -21 -4 -37 -17 -51 -41 -12 -19 -27 -35 -33 -35
-7 0 -21 -9 -31 -20 -10 -11 -24 -20 -30 -20 -7 0 -18 -7 -25 -15 -7 -8 -21
-15 -31 -15 -11 0 -19 -4 -19 -10 0 -13 0 -13 49 5 22 8 41 12 41 10 0 -3 -17
-16 -38 -30 -29 -19 -54 -26 -107 -29 -39 -2 -87 -11 -107 -20 -21 -9 -43 -16
-49 -16 -18 0 -121 -66 -148 -94 -14 -14 -20 -26 -14 -26 6 0 17 7 24 16 12
14 148 84 164 84 3 0 3 -4 0 -10 -3 -5 -2 -10 3 -10 6 0 12 6 15 14 4 10 31
16 84 21 43 4 94 11 113 16 42 10 121 59 114 71 -3 4 2 5 11 2 14 -6 14 -8 -1
-25 -28 -31 -6 -21 41 18 46 38 53 53 16 33 -30 -15 -26 2 7 33 37 36 80 47
174 47 45 0 78 4 78 10 0 6 -7 10 -15 10 -32 0 -13 18 30 29 42 11 66 33 51
48 -3 4 -23 -1 -44 -11 -20 -10 -48 -20 -62 -22 -14 -2 -35 -7 -48 -9 -26 -6
-92 4 -92 14 0 3 24 5 52 3 47 -2 57 1 86 29 41 37 38 43 -8 19z M6520 4876
c0 -2 27 -13 60 -25 55 -20 84 -27 133 -30 10 -1 17 -9 17 -22 0 -20 25 -48
43 -49 4 0 7 29 7 65 l0 65 -130 0 c-71 0 -130 -2 -130 -4z M6949 4873 c0 -5
0 -55 1 -113 1 -84 4 -107 17 -117 9 -7 20 -13 25 -13 4 0 8 43 8 95 l0 95 65
0 66 0 -2 -120 c0 -71 -5 -123 -11 -126 -21 -13 38 -33 100 -34 l62 0 0 -31
c0 -28 30 -68 53 -69 4 0 7 99 7 220 l0 220 -195 0 c-107 0 -195 -3 -196 -7z
m331 -178 l0 -125 -60 0 -60 0 0 125 0 125 60 0 60 0 0 -125z M3670 4853 c-49
-17 -150 -67 -150 -75 0 -4 17 -1 37 7 21 9 53 18 71 21 19 3 52 12 74 20 22
8 51 14 65 14 14 0 21 4 18 10 -6 10 -88 13 -115 3z M5256 4844 c-3 -9 -3 -20
0 -26 3 -5 -4 -19 -17 -31 -17 -16 -21 -17 -16 -5 3 10 -2 27 -13 40 l-19 23
-1 -27 c0 -15 -5 -30 -11 -34 -21 -13 22 -159 45 -151 6 2 10 11 8 21 -5 30
13 16 30 -23 23 -52 80 -130 96 -130 7 -1 15 6 18 14 7 17 -14 48 -26 40 -7
-4 -20 17 -20 31 0 5 41 -18 55 -31 5 -5 11 -25 13 -42 2 -31 0 -33 -32 -33
-35 0 -59 -19 -55 -42 6 -28 -13 -76 -39 -100 -39 -37 -69 -50 -126 -55 l-51
-5 27 21 c14 12 31 21 36 21 5 0 30 12 56 26 48 27 47 25 50 116 1 14 -6 22
-21 24 -13 2 -23 0 -23 -4 0 -5 -18 -14 -41 -21 -33 -10 -38 -15 -28 -27 17
-21 -4 -17 -34 6 l-26 20 -37 -21 c-25 -14 -50 -20 -75 -17 -21 2 -35 0 -33
-4 8 -12 -21 -9 -33 3 -9 9 -16 8 -28 -5 -9 -9 -21 -14 -26 -10 -12 7 -2 24
16 24 12 0 25 21 25 41 0 15 -30 10 -36 -5 -5 -12 -10 -12 -37 2 -17 10 -37
24 -44 32 -11 13 -14 13 -23 0 -7 -10 -12 -12 -17 -4 -13 18 -50 34 -66 29 -7
-3 -20 1 -27 10 -19 23 -40 18 -40 -10 0 -21 5 -25 30 -25 17 0 30 -4 30 -10
0 -5 -5 -10 -11 -10 -5 0 -7 -4 -4 -10 9 -14 -1 -12 -36 6 -34 17 -176 27
-185 13 -3 -5 -21 -7 -40 -3 -22 4 -34 2 -34 -5 0 -14 -43 -14 -57 0 -8 8 -14
6 -22 -9 -7 -14 -24 -21 -61 -24 -64 -6 -83 -22 -47 -39 21 -10 31 -8 59 9 55
34 237 66 276 49 17 -8 25 -8 31 2 6 10 10 9 14 -3 4 -10 18 -16 36 -16 17 0
31 -6 35 -16 5 -14 -1 -15 -41 -10 -56 6 -135 7 -142 0 -10 -10 12 -17 91 -29
77 -11 80 -13 38 -16 -55 -5 -62 -30 -12 -40 65 -13 286 -10 372 5 106 19 124
19 81 0 -19 -8 -78 -22 -133 -31 -97 -16 -128 -32 -65 -34 62 -3 -62 -19 -208
-27 -77 -4 -145 -11 -152 -15 -13 -8 -86 -20 -233 -37 -57 -7 -95 -7 -114 0
-26 9 -28 8 -23 -11 5 -19 4 -20 -12 -5 -25 23 -27 21 -41 -29 -21 -75 -58
-99 -176 -114 -54 -7 -103 -16 -109 -20 -5 -4 -43 -20 -84 -35 -54 -19 -89
-41 -134 -81 -33 -30 -75 -59 -93 -64 -18 -5 -65 -30 -106 -56 -114 -75 -126
-80 -78 -36 49 45 42 52 -23 20 l-42 -20 25 20 c26 22 120 61 145 61 8 0 15 4
15 9 0 4 31 32 69 62 38 30 74 62 81 72 10 17 9 18 -12 11 -12 -4 -57 -30 -98
-59 -41 -29 -115 -73 -165 -97 -49 -25 -112 -59 -139 -76 -52 -34 -78 -34 -36
-1 14 10 52 34 85 53 33 18 77 43 97 54 21 12 55 39 78 62 22 22 47 40 56 40
23 0 143 69 153 88 10 19 4 40 -15 63 -12 14 -11 18 6 34 11 10 20 15 20 11 0
-7 84 37 108 56 7 6 15 9 17 6 3 -3 -11 -16 -31 -30 -19 -14 -36 -30 -37 -34
-1 -5 -6 -8 -12 -6 -5 2 -15 -5 -22 -14 -27 -36 -12 -40 45 -12 49 25 202 66
267 72 48 5 106 28 134 55 29 28 31 33 31 105 0 42 -1 79 -2 83 -3 8 -57 5
-71 -4 -4 -3 -3 -11 3 -18 8 -9 5 -14 -9 -18 -11 -3 -21 -1 -23 5 -2 5 -12 6
-21 2 -14 -5 -17 -13 -12 -31 5 -21 3 -23 -19 -17 -19 4 -27 1 -36 -16 -9 -16
-15 -19 -23 -11 -8 8 -6 15 8 25 51 35 70 57 56 63 -10 4 -8 9 10 19 l24 13
-28 1 c-20 0 -30 -6 -34 -18 -4 -19 -55 -54 -70 -50 -4 1 -24 -2 -43 -7 -19
-5 -43 -8 -52 -6 -23 3 -23 -8 -1 -24 14 -10 25 -10 56 1 49 17 60 18 55 2 -3
-7 -25 -17 -49 -21 -24 -4 -58 -10 -76 -13 -18 -4 -38 -12 -44 -20 -6 -8 -28
-14 -48 -14 -26 0 -45 -8 -66 -27 -16 -16 -32 -28 -35 -28 -15 -2 -80 -39 -80
-46 0 -5 -11 -14 -25 -19 -14 -5 -25 -14 -25 -19 0 -5 -12 -13 -28 -19 -43
-15 -104 -60 -123 -92 -14 -22 -24 -28 -43 -24 -14 2 -28 -1 -32 -8 -5 -8 -2
-9 9 -5 9 3 19 2 22 -4 4 -5 17 -2 33 9 15 11 37 24 50 31 30 16 29 -3 -3 -31
-22 -19 -34 -48 -20 -48 3 0 31 14 64 31 79 42 97 33 31 -16 -66 -48 -180 -92
-191 -73 -5 8 -3 14 6 16 8 2 15 7 15 12 0 14 -32 21 -45 10 -7 -6 -31 -12
-53 -14 -40 -3 -132 -52 -162 -86 -21 -24 -70 -54 -70 -43 0 12 63 73 75 73 6
0 21 10 35 21 20 17 21 19 5 14 -11 -4 -34 -13 -51 -19 -18 -6 -56 -39 -85
-73 -54 -63 -81 -78 -41 -23 28 38 28 41 -6 29 -16 -5 -50 -32 -77 -59 -44
-45 -47 -51 -43 -88 6 -40 44 -108 65 -116 7 -3 34 13 60 36 47 41 127 82 147
75 6 -2 36 11 68 29 57 32 84 30 31 -2 -16 -9 -47 -30 -69 -45 -23 -16 -44
-25 -48 -22 -4 4 -17 -3 -29 -15 -12 -12 -33 -31 -47 -43 l-25 -20 25 7 c54
14 142 65 204 118 57 48 86 66 86 53 0 -2 -27 -23 -60 -47 -33 -24 -60 -48
-60 -53 0 -5 10 -3 23 5 45 30 177 100 177 94 0 -17 -272 -166 -303 -166 -22
0 -127 -42 -127 -50 0 -33 164 -9 248 35 26 14 51 25 55 25 5 0 36 20 70 44
34 24 76 47 92 50 17 4 62 27 100 52 39 26 84 53 100 61 53 28 159 101 184
127 13 15 29 26 36 26 7 0 35 9 62 21 26 11 92 27 145 35 140 19 173 40 214
132 1 2 17 -6 35 -17 45 -27 138 -28 294 -1 75 13 163 20 244 20 132 0 223 12
278 36 17 8 38 14 47 14 9 0 30 10 46 21 27 21 31 21 62 6 18 -8 58 -23 88
-32 30 -9 72 -23 93 -31 20 -8 48 -14 61 -14 13 0 79 -22 147 -50 68 -27 133
-50 146 -50 40 0 115 -34 243 -112 140 -84 226 -129 283 -148 45 -14 119 -54
167 -89 49 -37 68 -46 157 -80 112 -44 169 -82 188 -128 21 -49 39 -69 101
-109 28 -18 77 -55 110 -83 32 -28 73 -56 91 -63 28 -10 32 -17 39 -62 8 -63
37 -120 102 -208 79 -105 97 -142 152 -313 75 -233 77 -239 126 -301 l44 -57
0 -111 c0 -84 6 -136 25 -214 14 -57 30 -154 35 -215 11 -124 19 -163 45 -222
10 -22 21 -67 24 -100 5 -51 9 -60 26 -60 18 0 20 8 23 64 2 35 9 73 16 83 12
17 15 13 21 -44 7 -64 37 -138 55 -138 13 0 13 16 0 41 -8 15 -7 19 5 19 19 0
20 46 4 223 -16 169 -34 157 -32 -21 l2 -127 -19 70 c-12 48 -18 61 -19 40 -1
-20 -4 -26 -11 -19 -6 6 -13 55 -16 110 -6 129 -11 159 -29 174 -13 11 -14 -1
-10 -91 3 -57 8 -124 10 -149 3 -31 2 -40 -5 -30 -11 17 -19 81 -25 190 -2 41
-6 84 -8 95 -46 182 -57 249 -57 356 0 82 -3 99 -25 134 -40 65 -111 217 -124
265 -6 25 -16 54 -20 65 -5 11 -17 43 -26 70 -30 83 -84 184 -130 240 -70 87
-93 133 -100 207 l-7 68 -56 25 c-30 14 -74 43 -97 64 -24 22 -68 56 -100 77
-40 27 -64 51 -80 85 -27 51 -51 74 -111 103 -21 11 -55 27 -74 36 -19 10 -47
20 -61 23 -14 4 -60 29 -102 57 -91 59 -130 79 -257 135 -52 22 -140 70 -195
105 -148 95 -242 140 -293 140 -24 0 -67 10 -95 23 -82 37 -119 49 -159 54
-20 3 -39 11 -42 19 -6 16 -6 16 54 3 25 -5 60 -12 79 -14 18 -3 55 -15 82
-26 50 -22 73 -24 126 -14 21 5 30 12 26 21 -3 8 -1 14 4 14 10 0 119 -84 166
-128 34 -33 85 -62 272 -157 83 -42 157 -83 165 -91 9 -7 46 -23 83 -34 41
-13 67 -26 67 -35 0 -21 56 -60 144 -100 122 -55 126 -39 4 22 -29 14 -55 29
-58 33 -3 4 -18 13 -35 21 -17 8 -31 23 -33 35 -2 17 -22 29 -85 54 -45 18
-118 51 -162 75 -44 23 -125 66 -179 95 -127 66 -176 98 -176 111 0 6 12 2 28
-9 29 -21 136 -79 297 -160 90 -46 217 -92 252 -92 16 0 18 56 3 94 -13 36 7
34 22 -1 l11 -28 7 30 6 30 12 -35 c19 -55 92 -119 202 -175 19 -10 52 -33 73
-51 30 -28 45 -34 81 -34 42 0 47 -3 88 -56 53 -70 98 -97 152 -90 36 4 96 47
96 69 0 4 7 16 16 25 23 22 -1 30 -25 8 -10 -9 -36 -20 -57 -23 l-38 -6 17 26
c23 35 22 45 -5 50 -17 3 -15 5 9 6 66 2 84 31 20 31 -18 0 -43 7 -55 16 -12
8 -27 12 -34 8 -7 -4 -8 -3 -4 4 4 7 3 12 -3 12 -5 0 -11 -5 -13 -11 -8 -25
-59 15 -83 65 -18 39 -25 47 -30 34 -4 -10 0 -30 7 -46 8 -15 12 -34 10 -41
-4 -12 -62 94 -62 115 0 6 -6 17 -14 23 -25 21 11 -117 39 -151 30 -36 33 -53
5 -38 -11 6 -29 28 -40 49 -14 28 -30 43 -55 51 -35 12 -60 6 -50 -11 4 -5 3
-9 0 -9 -12 0 -93 51 -107 67 -11 14 -9 14 20 -1 32 -17 33 -17 23 2 -14 26
-32 40 -60 44 -17 2 -32 18 -52 55 -30 58 -45 76 -71 86 -10 3 -18 12 -18 18
0 17 -66 79 -83 79 -8 0 -17 9 -20 21 -3 12 -10 19 -15 16 -4 -3 -32 5 -62 19
-87 40 -77 7 18 -53 28 -18 52 -40 52 -48 0 -20 -2 -19 -36 10 -16 14 -36 26
-44 27 -8 0 -20 2 -26 2 -6 1 -18 6 -25 13 -8 6 -38 21 -66 33 -29 12 -53 29
-53 36 0 18 -42 45 -66 43 -40 -4 -74 1 -74 12 0 5 5 7 10 4 6 -3 10 -1 10 5
0 7 -9 14 -20 17 -11 3 -20 10 -20 15 0 6 6 8 14 5 8 -3 17 0 20 8 3 9 0 12
-9 9 -21 -8 -57 29 -49 52 4 13 3 15 -3 6 -7 -10 -18 -7 -48 13 -21 15 -41 22
-44 17 -6 -10 -51 2 -51 13 0 4 5 3 10 0 6 -3 10 -1 10 4 0 6 -11 11 -24 11
-14 0 -28 5 -31 10 -3 6 -12 10 -20 10 -8 0 -26 12 -41 26 -21 22 -28 24 -36
13 -6 -10 -7 -7 -3 10 7 22 5 23 -19 17 -20 -5 -35 0 -60 19 -18 14 -38 25
-44 25 -7 0 -22 10 -34 23 -13 12 -27 22 -33 22 -5 0 -10 12 -10 27 -1 17 3
24 10 19 5 -5 25 -11 43 -13 26 -4 32 -1 30 11 -2 9 -17 22 -33 30 -17 8 -34
20 -38 28 -17 28 -57 66 -64 59 -4 -3 4 -16 17 -28 16 -15 19 -23 11 -26 -15
-5 -82 57 -79 72 3 16 -12 56 -20 56 -15 0 -10 -85 6 -105 9 -11 10 -15 2 -7
-19 17 -30 15 -31 -5 0 -13 -3 -11 -11 7 -5 14 -8 53 -5 87 4 48 1 63 -10 67
-20 8 -20 8 -27 -10z m-38 -119 c0 -16 -2 -15 -8 5 -4 14 -8 34 -8 45 0 16 2
15 8 -5 4 -14 8 -34 8 -45z m52 -5 c7 -13 6 -20 -7 -24 -19 -8 -20 -8 -28 27
-6 23 -4 26 9 21 9 -4 21 -14 26 -24z m54 -66 c9 -23 7 -36 -3 -30 -12 8 -21
46 -11 46 4 0 11 -7 14 -16z m246 -181 c0 -5 -4 -14 -9 -22 -7 -11 -13 -9 -30
8 l-21 21 30 0 c17 0 30 -3 30 -7z m-820 -51 c-25 -4 -60 15 -60 33 0 10 10 8
40 -8 31 -17 35 -23 20 -25z m881 13 c57 -25 92 -59 49 -48 -11 3 -20 10 -20
15 0 5 -8 7 -19 3 -19 -6 -71 12 -71 25 0 9 11 20 20 20 4 0 23 -7 41 -15z
m-791 -50 c0 -19 -29 -19 -54 0 -19 14 -18 15 17 15 26 0 37 -4 37 -15z m545
-15 c3 -5 -3 -10 -15 -10 -12 0 -18 5 -15 10 3 6 10 10 15 10 5 0 12 -4 15
-10z m508 -54 c19 -6 23 -26 5 -26 -14 1 -58 34 -58 44 0 3 8 2 18 -3 9 -5 25
-12 35 -15z m-198 -6 c10 -11 15 -20 11 -20 -14 0 -46 21 -46 30 0 16 16 11
35 -10z m95 -15 c14 -8 19 -14 10 -14 -8 0 -26 6 -40 14 -14 8 -19 14 -10 14
8 0 26 -6 40 -14z m-1825 -26 c-26 -10 -75 -11 -75 -1 0 4 21 7 48 8 32 1 41
-1 27 -7z m1905 -4 c14 -8 19 -14 10 -14 -8 0 -26 6 -40 14 -14 8 -19 14 -10
14 8 0 26 -6 40 -14z m-2002 -4 c10 -6 10 -10 -3 -21 -8 -7 -18 -10 -22 -7 -3
3 -18 0 -34 -8 -35 -19 -49 -19 -49 -1 0 20 28 34 90 45 3 0 11 -3 18 -8z
m1071 -5 c-50 -50 -142 -76 -271 -76 -100 0 -256 -17 -329 -36 -61 -15 -172
-18 -204 -4 -29 12 -5 18 85 23 41 3 93 9 115 15 148 37 204 44 332 41 73 -2
135 0 139 4 4 4 21 7 38 7 17 1 45 7 61 15 33 15 41 17 34 11z m-1422 -84
c-29 -8 -57 -26 -57 -38 0 -7 -8 -10 -21 -7 -19 5 -17 8 17 29 22 12 44 27 49
32 6 6 13 5 17 -2 4 -6 2 -12 -5 -14z m2141 8 c14 -23 5 -26 -20 -6 -21 16
-23 26 -5 26 7 0 18 -9 25 -20z m407 -35 l30 -13 -36 -1 c-19 -1 -44 6 -55 14
-18 14 -18 14 6 14 14 0 39 -6 55 -14z m-135 -34 c13 -25 13 -34 0 -26 -16 10
-32 45 -21 45 6 0 15 -9 21 -19z m211 3 c17 -8 29 -18 26 -20 -9 -9 -56 8 -61
22 -7 18 -2 18 35 -2z m113 -54 c22 -17 48 -30 58 -30 16 0 73 -24 87 -36 1
-1 0 -7 -4 -13 -4 -7 -14 -6 -29 4 -12 8 -25 13 -28 10 -3 -3 -18 1 -33 9 -15
8 -33 12 -40 10 -7 -3 -15 4 -18 15 -3 12 -16 25 -30 30 -32 12 -44 31 -20 31
10 0 36 -14 57 -30z m-2770 0 c-10 -10 -104 -41 -104 -34 0 2 17 12 38 23 39
21 84 29 66 11z m2768 -80 c18 -11 29 -20 23 -20 -16 1 -82 39 -68 40 7 0 27
-9 45 -20z m264 -21 c8 -14 -18 -31 -30 -19 -9 9 0 30 14 30 5 0 12 -5 16 -11z
m34 -58 c16 -30 12 -36 -10 -16 -21 19 -26 35 -10 35 5 0 14 -9 20 -19z
m-3680 -159 c0 -5 -13 -18 -30 -30 -19 -15 -30 -18 -30 -10 0 7 12 20 28 30
34 20 32 20 32 10z m3926 -26 c10 -8 16 -17 13 -20 -3 -4 -17 2 -30 13 -27 23
-13 28 17 7z M5377 4824 c9 -23 53 -66 64 -62 6 2 -6 20 -24 41 -37 40 -50 47
-40 21z M5455 4820 c10 -11 20 -18 23 -15 7 6 -18 35 -31 35 -5 0 -2 -9 8 -20z
M5070 4795 c0 -19 5 -35 10 -35 6 0 10 -17 10 -38 0 -43 23 -97 44 -105 8 -3
22 -22 31 -41 10 -20 21 -36 26 -36 5 0 9 -9 9 -19 0 -20 13 -35 22 -25 8 7
-36 95 -64 130 -25 29 -68 148 -68 184 0 11 -4 20 -10 20 -5 0 -10 -16 -10
-35z M5830 4760 c0 -5 8 -14 19 -19 10 -6 38 -27 62 -47 57 -48 104 -68 127
-55 14 9 13 10 -10 11 -17 0 -47 16 -80 43 -92 74 -118 89 -118 67z M5460
4715 c0 -16 27 -32 37 -21 7 7 -16 36 -28 36 -5 0 -9 -7 -9 -15z M6060 4703
c0 -14 25 -26 103 -52 56 -19 108 -36 115 -39 6 -2 12 0 12 4 0 13 -111 65
-137 64 -27 0 -73 20 -73 32 0 4 -4 8 -10 8 -5 0 -10 -8 -10 -17z M4096 4665
c-9 -14 -15 -29 -12 -34 9 -14 -47 -58 -89 -71 -41 -13 -78 -37 -40 -27 34 10
81 17 67 11 -15 -7 -36 -44 -24 -44 12 0 122 109 123 123 8 73 2 83 -25 42z
M6062 4628 c3 -7 24 -17 49 -23 24 -7 61 -20 82 -30 21 -10 40 -15 43 -12 12
12 -41 46 -95 61 -69 19 -84 20 -79 4z M4696 4611 c14 -13 64 -23 64 -12 0 11
-25 21 -53 21 -12 0 -17 -4 -11 -9z M4570 4600 c0 -5 11 -10 23 -10 13 0 50
-9 82 -20 55 -19 80 -20 59 -1 -30 26 -164 52 -164 31z M4796 4600 c16 -16
107 -48 122 -43 26 10 10 23 -38 29 -27 4 -50 10 -50 15 0 5 -10 9 -22 9 -15
0 -19 -3 -12 -10z M5018 4603 c-10 -2 -18 -9 -18 -15 0 -6 8 -7 18 -3 9 4 22
8 29 9 7 1 16 5 19 9 8 8 -20 8 -48 0z M4424 4582 c3 -5 26 -19 51 -32 35 -18
48 -21 57 -12 9 9 8 12 -5 12 -9 0 -17 6 -17 14 0 17 -27 29 -35 16 -3 -6 -16
-5 -31 0 -14 6 -23 6 -20 2z M4760 4563 c0 -31 94 -79 121 -62 22 13 -1 42
-42 52 -19 4 -44 11 -56 14 -13 3 -23 1 -23 -4z M4204 4544 c3 -9 6 -18 6 -20
0 -2 14 -4 31 -4 17 0 28 4 24 10 -3 6 -15 10 -26 10 -10 0 -19 5 -19 10 0 6
-5 10 -11 10 -6 0 -8 -7 -5 -16z M4555 4550 c-3 -5 -4 -14 0 -20 8 -13 35 -1
35 16 0 16 -26 19 -35 4z M4124 4534 c-4 -10 -9 -22 -11 -26 -2 -5 2 -8 10 -8
19 0 31 30 18 43 -7 7 -13 4 -17 -9z M5740 4542 c0 -21 71 -77 143 -112 44
-22 82 -40 85 -40 3 0 -5 11 -18 25 -12 13 -45 32 -71 40 -27 9 -52 23 -56 30
-10 17 -83 67 -83 57z M4055 4524 c-17 -8 -37 -22 -46 -30 -8 -8 -23 -14 -32
-14 -18 0 -30 -14 -20 -23 3 -4 18 0 32 8 14 7 38 16 53 19 24 6 56 41 46 51
-2 3 -17 -3 -33 -11z M5045 4530 c-3 -5 -12 -7 -19 -4 -8 3 -17 1 -21 -5 -3
-7 -17 -8 -33 -4 -24 6 -26 5 -13 -10 17 -21 43 -22 82 -1 24 12 34 13 45 3 7
-6 23 -9 35 -6 12 3 32 -1 44 -9 32 -21 39 -2 10 26 -22 21 -27 22 -56 9 -25
-10 -34 -10 -37 -1 -4 14 -28 16 -37 2z M4902 4516 c1 -10 8 -17 13 -17 15 1
12 24 -3 29 -9 3 -13 -2 -10 -12z M5580 4520 c0 -5 9 -14 20 -20 22 -12 27 -1
8 18 -14 14 -28 16 -28 2z M3894 4505 c-10 -8 -14 -14 -9 -15 15 0 40 18 34
24 -3 3 -14 -1 -25 -9z M4160 4495 c-9 -11 -10 -19 -2 -27 12 -12 35 -1 27 13
-4 5 8 9 25 9 18 0 29 4 25 10 -10 15 -61 12 -75 -5z M2756 4461 c-24 -45
-134 -136 -161 -133 -37 5 -182 -36 -215 -60 -41 -30 -23 -35 29 -8 22 11 62
22 88 25 l48 5 -72 -38 c-80 -42 -178 -141 -226 -231 -28 -51 -25 -73 3 -27
33 54 130 152 171 174 43 23 42 22 -28 -45 -65 -61 -133 -145 -133 -163 0 -4
43 35 96 87 53 51 102 93 109 93 7 0 18 7 25 15 7 8 20 15 28 15 11 0 3 -13
-23 -40 -21 -22 -36 -40 -32 -40 8 0 173 131 225 178 32 30 43 57 20 50 -7 -3
-13 -9 -13 -14 0 -18 -15 -32 -39 -36 -23 -5 -23 -3 11 38 20 23 47 47 60 53
18 8 24 17 20 31 -3 11 -2 20 2 20 4 0 15 16 24 35 20 42 4 58 -17 16z M4102
4440 c0 -53 12 -74 23 -39 8 25 -2 89 -15 89 -5 0 -9 -23 -8 -50z M4932 4460
c15 -24 33 -27 24 -4 -3 9 -6 18 -6 20 0 2 -7 4 -15 4 -13 0 -13 -3 -3 -20z
M4973 4458 c-1 -13 5 -16 35 -11 53 7 64 12 57 23 -3 5 -25 8 -48 7 -32 -1
-43 -6 -44 -19z M6422 4428 c8 -13 21 -34 29 -46 8 -13 37 -35 64 -49 28 -14
71 -44 97 -67 26 -22 65 -56 87 -74 28 -23 41 -43 45 -70 10 -55 16 -72 27
-72 13 0 11 77 -2 103 -16 32 -71 87 -86 87 -7 0 -29 17 -50 38 -21 21 -58 50
-83 64 -25 15 -64 45 -87 67 -47 45 -63 53 -41 19z M3800 4430 c-20 -12 -9
-21 18 -13 12 3 19 9 16 14 -7 11 -15 11 -34 -1z M6883 4404 c9 -11 17 -28 17
-37 0 -27 46 -71 107 -101 32 -16 66 -33 76 -38 11 -5 22 -6 25 -3 9 8 -20 30
-82 62 -28 14 -75 51 -105 82 -31 31 -48 47 -38 35z M4275 4405 c-5 -2 -29 -9
-52 -15 l-43 -11 0 -49 c0 -28 5 -50 10 -50 6 0 10 -7 10 -15 0 -29 48 -37
149 -25 52 7 103 17 113 24 17 12 17 14 1 28 -10 8 -27 20 -38 26 -14 8 -16
12 -5 12 12 0 10 4 -4 15 -11 8 -16 15 -11 15 5 0 17 -7 27 -17 26 -23 32 -11
8 15 -12 12 -17 22 -13 22 4 0 3 4 -2 9 -11 9 -133 23 -150 16z M4140 4335 c0
-14 -8 -37 -17 -52 -16 -24 -16 -26 2 -39 11 -8 24 -13 30 -11 10 4 15 78 7
110 -7 26 -22 20 -22 -8z M3598 4344 c-5 -4 -8 -13 -8 -21 0 -14 55 -19 64 -4
9 14 -6 21 -25 11 -13 -8 -18 -6 -21 6 -2 9 -6 12 -10 8z M6016 4323 c-10 -10
15 -33 52 -49 42 -17 54 -11 26 14 -23 22 -70 43 -78 35z M2945 4286 c-13 -13
-27 -36 -31 -50 -8 -35 3 -91 22 -106 22 -19 28 -5 9 24 -22 33 -13 85 21 126
31 36 14 41 -21 6z M3479 4278 c-21 -15 -45 -28 -53 -28 -18 0 -39 -26 -31
-40 8 -14 31 -13 47 3 31 30 97 77 119 86 22 8 21 9 -9 9 -20 -1 -49 -13 -73
-30z M3414 4278 l-19 -21 28 18 c28 18 33 25 19 25 -5 0 -17 -10 -28 -22z
M4665 4293 c-27 -7 -44 -23 -23 -23 33 0 77 13 72 21 -5 9 -16 10 -49 2z
M6130 4280 c0 -5 17 -10 38 -9 30 0 33 2 17 9 -28 12 -55 12 -55 0z M2767
4255 c-31 -118 -29 -170 11 -268 12 -31 12 -43 2 -62 -7 -13 -9 -28 -6 -34 4
-7 -1 -11 -14 -11 -38 0 -133 -74 -184 -145 -11 -14 -18 -17 -26 -9 -15 15 -3
39 25 52 13 6 32 24 41 39 9 15 25 40 36 56 34 49 2 28 -78 -52 -43 -44 -94
-105 -112 -138 -18 -32 -57 -85 -87 -118 -55 -60 -64 -75 -45 -75 6 0 10 4 10
9 0 5 14 14 30 21 17 7 39 23 49 36 11 13 22 24 26 24 4 0 -8 -18 -25 -40 -28
-35 -30 -43 -19 -57 12 -14 12 -16 -2 -11 -16 6 -39 -8 -39 -24 0 -18 24 -6
62 32 23 22 47 40 53 40 7 0 15 10 19 23 5 17 8 19 15 8 7 -10 1 -22 -18 -40
-16 -15 -31 -36 -35 -48 -4 -11 -16 -23 -27 -26 -16 -4 -20 -12 -17 -37 3 -31
2 -32 -46 -35 -27 -2 -60 2 -73 8 -19 8 -26 8 -33 -2 -5 -9 -17 -12 -36 -7
-27 6 -28 5 -10 -9 11 -8 28 -15 38 -15 10 0 18 -4 18 -10 0 -19 43 -12 152
26 9 3 18 13 20 22 2 8 13 16 26 17 18 1 21 -2 16 -19 -4 -11 -20 -37 -37 -58
-25 -31 -35 -37 -64 -34 -18 1 -43 -4 -55 -13 -12 -8 -18 -9 -14 -3 4 7 3 12
-3 12 -5 0 -13 -4 -16 -10 -3 -5 -11 -10 -16 -10 -6 0 -8 4 -5 9 3 5 -9 14
-27 22 -17 7 -40 21 -50 31 -10 10 -26 18 -35 18 -10 0 -42 6 -72 14 -79 20
-126 23 -122 8 2 -10 -12 -11 -57 -6 -41 4 -61 3 -66 -6 -9 -15 11 -29 34 -23
21 5 43 -18 33 -34 -6 -9 -15 -8 -37 2 -17 8 -50 19 -75 26 l-45 12 40 7 c25
5 45 16 55 31 27 40 134 139 170 156 19 10 50 27 68 40 18 12 54 29 80 39 67
25 76 37 22 32 -28 -3 -63 -17 -91 -37 -26 -17 -53 -31 -61 -31 -14 0 -77 -41
-116 -76 -59 -52 -118 -93 -141 -97 -14 -3 -50 -11 -79 -19 -53 -15 -97 -13
-119 5 -10 7 -13 2 -13 -22 0 -27 5 -34 37 -47 28 -12 45 -13 75 -6 31 8 45 6
75 -9 20 -10 52 -22 70 -25 41 -8 54 -24 19 -24 -51 0 -24 -25 84 -78 41 -20
81 -36 88 -35 8 1 11 -5 8 -14 -3 -8 -6 -17 -6 -21 0 -3 -11 5 -25 18 -29 27
-42 22 -25 -10 9 -17 8 -31 -6 -66 -9 -24 -14 -47 -11 -50 3 -4 0 -22 -8 -41
-8 -20 -15 -41 -15 -49 0 -7 -11 -25 -25 -40 -14 -15 -28 -39 -32 -53 -3 -14
-12 -33 -20 -43 -16 -18 -14 -83 2 -83 6 0 13 19 16 42 3 24 15 53 27 66 12
13 22 32 22 43 0 10 9 25 19 31 11 7 21 22 23 34 2 12 9 24 16 27 19 6 15 -42
-7 -69 -10 -13 -20 -35 -23 -49 -3 -14 -9 -34 -13 -45 -5 -15 -1 -14 17 7 12
15 31 37 40 50 l17 23 7 -22 c3 -13 10 -23 15 -23 5 0 9 -5 9 -11 0 -8 -4 -8
-13 -1 -12 10 -47 -6 -47 -23 0 -4 -12 -26 -27 -49 -28 -40 -35 -54 -68 -129
-9 -22 -37 -53 -65 -74 -27 -20 -48 -39 -46 -41 5 -5 84 36 118 61 18 13 34
39 43 69 8 27 21 58 30 71 8 12 20 39 26 60 5 20 14 37 19 37 14 0 12 -13 -5
-49 -8 -17 -22 -45 -30 -63 -11 -22 -13 -33 -5 -38 7 -5 6 -11 -5 -20 -8 -7
-15 -23 -15 -37 0 -17 -10 -30 -36 -45 -19 -11 -33 -26 -30 -33 11 -29 -22
-52 -81 -58 -138 -14 -201 -26 -241 -47 -51 -27 -49 -37 3 -16 21 9 70 18 109
21 39 3 87 7 106 8 19 2 42 0 51 -6 11 -7 32 -2 77 18 74 33 79 39 88 93 6 37
4 42 -12 43 -17 0 -16 2 3 11 24 11 27 19 38 81 3 21 17 59 31 83 14 25 23 52
20 59 -5 13 0 25 33 95 11 24 11 23 7 -10 -3 -19 -8 -46 -12 -59 -5 -17 -4
-22 4 -17 17 10 16 7 -22 -83 -19 -44 -38 -96 -42 -116 -5 -30 -4 -35 12 -34
25 0 61 78 114 244 39 122 41 135 35 205 -8 89 -16 111 -55 160 -33 42 -41 69
-10 31 16 -18 26 -22 47 -16 23 5 25 4 14 -9 -10 -11 -6 -33 20 -109 33 -102
34 -103 87 -69 27 17 82 108 82 135 0 33 52 121 102 175 l49 52 -7 68 c-5 54
-3 76 10 100 9 17 16 44 16 59 1 15 7 39 15 53 8 14 15 36 15 50 0 14 9 40 18
58 19 35 127 122 153 122 26 0 40 25 46 83 4 35 1 62 -8 78 -8 14 -16 74 -19
144 -4 85 -8 111 -13 90z m-293 -636 c-24 -27 -30 -15 -9 18 12 17 20 23 23
15 2 -7 -4 -22 -14 -33z m25 -171 c0 -31 -1 -31 -10 -10 -5 13 -7 28 -3 33 10
16 14 9 13 -23z m-450 -124 c14 -12 -39 -1 -55 11 -17 13 -16 14 16 3 19 -6
37 -13 39 -14z m76 -24 c18 -8 17 -9 -7 -9 -15 -1 -30 4 -33 9 -7 12 12 12 40
0z m-110 -10 c-4 -6 10 -17 30 -26 21 -8 34 -18 31 -22 -10 -9 -76 29 -76 45
0 7 5 13 11 13 5 0 7 -5 4 -10z m384 -47 c-22 -30 -42 -43 -63 -43 -16 1 -12
6 16 20 20 11 40 24 43 30 3 5 9 10 12 10 3 0 -1 -8 -8 -17z m-130 -9 c10 -9
-45 -3 -59 6 -11 7 -5 8 20 4 19 -4 37 -8 39 -10z m-58 -19 l34 -14 -35 0
c-19 0 -46 6 -60 14 l-25 14 26 1 c15 0 42 -7 60 -15z m85 -71 c-18 -18 -40
-18 -55 0 -9 11 -4 14 29 14 35 1 38 -1 26 -14z m-235 -183 c-8 -5 -15 -24
-16 -42 -2 -40 -13 -69 -27 -69 -7 0 -7 4 0 13 6 6 10 15 10 20 0 41 16 87 30
87 14 0 14 -2 3 -9z m111 -23 c-15 -15 -24 -6 -16 16 5 12 10 14 17 7 8 -8 8
-14 -1 -23z M6000 4255 c0 -8 8 -15 18 -15 9 0 28 -3 42 -6 18 -4 15 0 -12 15
-45 25 -48 25 -48 6z M6154 4252 c4 -7 20 -12 36 -12 16 0 41 -5 55 -12 26
-12 45 -4 29 12 -15 15 -129 26 -120 12z M6332 4195 c1 -14 8 -25 16 -25 7 0
10 5 7 10 -14 22 14 8 29 -15 9 -14 25 -25 35 -25 10 0 21 -7 25 -15 3 -8 12
-15 21 -15 9 0 27 -7 41 -16 42 -28 41 -4 -1 32 -23 20 -47 33 -58 30 -9 -2
-15 0 -12 5 5 7 -83 59 -100 59 -2 0 -4 -11 -3 -25z M3256 4145 c-26 -25 -50
-43 -54 -41 -12 7 -39 -17 -46 -42 -7 -22 -6 -23 15 -11 13 7 46 33 74 59 54
51 82 63 110 48 13 -8 16 -6 13 8 -2 11 -14 19 -34 21 -26 3 -39 -4 -78 -42z
M3935 4149 c-33 -11 -85 -20 -115 -21 -42 0 -72 -8 -127 -35 -77 -36 -97 -60
-41 -47 18 3 42 12 53 19 11 7 49 16 85 20 36 4 81 11 100 15 31 8 33 8 17 -4
-27 -21 -6 -27 31 -9 57 28 105 84 70 82 -7 0 -40 -9 -73 -20z M2179 4048
c-24 -37 -60 -69 -124 -112 -128 -86 -165 -127 -232 -258 -32 -62 -59 -116
-61 -120 -2 -5 0 -8 5 -8 4 0 42 53 83 118 68 107 132 182 154 182 5 0 4 -6
-2 -12 -5 -7 -13 -24 -16 -38 -7 -24 -6 -23 21 7 16 17 42 35 58 39 40 9 73
40 80 76 4 17 16 39 27 50 11 11 26 34 33 51 37 92 26 102 -26 25z M6556 4083
c-9 -23 -7 -30 4 -13 8 13 10 12 10 -2 0 -10 6 -18 13 -18 7 0 26 -14 43 -31
30 -32 74 -59 96 -59 7 0 -10 16 -39 35 -28 19 -54 43 -58 54 -3 11 -19 27
-35 34 -25 13 -29 13 -34 0z M6485 4067 c-4 -9 -2 -24 5 -32 28 -33 42 -5 16
31 -14 18 -15 18 -21 1z M3075 4047 c-48 -29 -75 -49 -74 -55 3 -18 -2 -26 -9
-15 -9 15 -77 -8 -106 -36 l-20 -21 21 0 c30 0 118 36 156 63 18 13 44 29 60
37 28 14 38 37 11 26 -8 -3 -12 -2 -9 4 8 13 -5 12 -30 -3z M2936 4024 c-11
-7 -16 -17 -13 -21 4 -4 15 1 24 10 22 21 14 30 -11 11z M6540 4020 c0 -10 9
-24 19 -30 31 -16 33 -12 14 20 -20 35 -33 39 -33 10z M6610 3970 c0 -5 9 -10
21 -10 11 0 17 5 14 10 -3 6 -13 10 -21 10 -8 0 -14 -4 -14 -10z M6640 3920
c0 -5 9 -11 20 -15 11 -3 40 -31 66 -61 42 -49 74 -68 74 -45 0 9 -39 49 -90
94 -26 22 -70 40 -70 27z M7276 3888 c-32 -26 -66 -79 -66 -103 0 -8 101 102
113 121 13 23 -6 16 -47 -18z M6940 3832 c0 -24 29 -64 43 -59 7 3 21 -3 32
-13 24 -21 75 -35 75 -20 0 5 -9 10 -20 10 -27 0 -109 61 -109 83 -1 23 -21
22 -21 -1z M2451 3763 c-10 -21 -33 -55 -50 -77 -48 -61 -39 -76 17 -28 17 15
32 36 32 47 0 10 7 26 15 35 18 20 28 60 15 60 -5 0 -18 -17 -29 -37z M6710
3787 c0 -19 16 -31 24 -18 3 5 -1 14 -9 21 -12 10 -15 10 -15 -3z M6582 3709
c2 -7 41 -35 87 -62 75 -46 84 -49 109 -37 l27 12 -47 23 c-26 12 -62 32 -80
43 -43 26 -102 39 -96 21z M7090 3710 c0 -5 7 -10 15 -10 8 0 15 5 15 10 0 6
-7 10 -15 10 -8 0 -15 -4 -15 -10z M2320 3635 c-7 -8 -8 -15 -2 -15 5 0 15 7
22 15 7 8 8 15 2 15 -5 0 -15 -7 -22 -15z M7396 3581 c16 -28 31 -46 32 -41 5
15 -32 83 -47 88 -8 3 -1 -17 15 -47z M7265 3590 c-8 -37 11 -84 31 -76 8 3
17 -10 25 -32 6 -20 17 -44 24 -52 7 -8 18 -26 25 -40 l13 -25 -29 27 c-16 15
-42 32 -57 37 -20 8 -34 24 -44 51 -17 42 -33 50 -52 26 -9 -11 -9 -16 1 -23
22 -13 60 -81 56 -100 -3 -14 -12 -6 -38 29 -31 44 -35 46 -46 29 -11 -14 -10
-28 4 -72 15 -50 78 -142 110 -162 7 -5 24 -26 37 -47 29 -46 96 -120 108
-120 5 0 22 -9 37 -20 15 -11 42 -22 59 -23 18 -2 38 -13 47 -25 8 -12 20 -22
25 -22 5 0 19 -9 31 -20 12 -10 25 -17 30 -14 8 5 83 -48 105 -76 7 -8 13 -23
13 -32 0 -10 5 -18 11 -18 30 0 -20 96 -60 116 -13 7 -37 26 -54 42 -18 17
-45 43 -62 57 l-30 26 28 -5 c15 -4 27 -2 27 4 0 5 -4 10 -9 10 -5 0 -11 9
-14 19 -3 12 -16 21 -33 24 -29 4 -28 4 14 22 42 18 42 18 20 33 -35 23 -78
65 -78 75 0 5 7 4 15 -3 22 -19 26 -8 10 24 -21 39 -18 46 6 17 24 -29 35 -23
13 7 -12 17 -22 21 -49 17 -21 -2 -38 1 -45 11 -7 7 -25 14 -40 14 -15 0 -30
6 -33 14 -9 22 5 27 30 11 30 -20 30 -4 -1 32 -40 48 -48 70 -35 94 9 17 8 23
-2 30 -19 12 -39 11 -39 -1 0 -22 -22 -8 -33 20 -6 17 -17 30 -24 30 -15 0
-36 37 -28 50 3 5 2 17 -3 27 -8 13 -11 11 -17 -17z m-31 -253 c31 -43 31 -48
-1 -36 -14 5 -23 17 -23 29 0 12 -5 31 -11 43 -14 27 -2 15 35 -36z m106 -59
c0 -5 -4 -8 -10 -8 -10 0 -60 69 -60 84 0 11 69 -65 70 -76z m63 7 c9 -18 9
-19 -6 -6 -10 7 -17 23 -16 35 0 14 2 16 6 6 3 -8 10 -24 16 -35z m117 -40
c10 -12 10 -15 -4 -15 -9 0 -16 7 -16 15 0 8 2 15 4 15 2 0 9 -7 16 -15z m70
-105 c8 -5 11 -12 8 -16 -10 -9 -38 3 -38 16 0 12 10 13 30 0z m-70 -50 c10
-19 10 -20 -9 -8 -22 13 -28 28 -11 28 5 0 14 -9 20 -20z M2322 3594 c-21 -15
-31 -64 -13 -64 14 0 22 30 8 30 -7 0 -1 9 13 20 30 23 23 36 -8 14z M7330
3594 c0 -17 17 -36 24 -26 3 5 -1 15 -9 22 -8 7 -15 9 -15 4z M2585 3530 c-9
-17 -15 -55 -15 -94 0 -55 -4 -69 -26 -95 -22 -26 -23 -32 -10 -37 22 -9 20
-27 -2 -20 -12 4 -26 -2 -38 -15 -19 -22 -19 -22 4 -15 29 10 28 -1 -4 -26
-20 -16 -23 -23 -12 -29 10 -7 9 -9 -4 -9 -10 0 -25 -15 -34 -32 -9 -18 -22
-40 -29 -48 -7 -8 -24 -38 -39 -65 -14 -28 -41 -65 -61 -83 -40 -38 -44 -52
-16 -52 31 0 60 39 148 195 32 55 65 108 74 119 19 20 50 80 53 103 1 8 8 18
15 22 6 4 9 15 5 24 -4 13 -1 17 15 17 13 0 25 9 30 22 5 15 10 18 15 9 4 -6
0 -23 -9 -37 -9 -14 -14 -29 -10 -32 10 -11 46 38 52 72 6 29 6 29 15 6 5 -12
6 -31 3 -41 -4 -11 -2 -19 3 -19 6 0 13 18 17 41 7 39 5 43 -30 71 -20 17 -41
41 -46 54 -12 34 -45 31 -64 -6z m37 -25 c-4 -35 -22 -40 -22 -6 0 13 17 41
25 41 1 0 -1 -16 -3 -35z M6836 3551 c-17 -7 -14 -11 25 -38 24 -17 67 -52 94
-78 28 -26 66 -58 85 -71 19 -13 30 -24 25 -24 -6 0 -33 16 -62 35 -28 19 -63
37 -78 41 -33 8 -88 40 -121 70 -21 20 -34 21 -34 4 0 -4 26 -25 58 -48 31
-22 68 -52 81 -66 29 -31 57 -46 161 -88 41 -16 83 -37 92 -45 10 -8 24 -13
33 -9 13 5 9 16 -23 63 -21 32 -41 65 -45 74 -3 9 -31 36 -62 60 -31 24 -78
63 -106 87 -50 42 -80 50 -123 33z M7355 3540 c-8 -14 3 -30 21 -30 16 0 16 2
8 24 -7 18 -20 21 -29 6z M1875 3516 c-11 -7 -40 -26 -65 -42 -25 -16 -58 -35
-75 -42 l-30 -12 33 5 c19 2 32 0 32 -6 0 -11 29 10 92 66 41 38 47 52 13 31z
M2242 3485 c-18 -20 -30 -40 -27 -46 8 -12 35 7 35 25 0 6 10 16 22 21 25 11
36 35 16 35 -7 0 -28 -16 -46 -35z M2740 3435 c-1 -49 -33 -107 -110 -196 -73
-84 -107 -132 -171 -242 -19 -33 -49 -76 -67 -98 -19 -21 -31 -39 -27 -39 22
0 86 67 145 154 38 56 99 135 135 176 36 41 77 92 91 112 32 46 42 115 20 143
-15 19 -15 19 -16 -10z M7430 3443 c0 -5 16 -24 35 -43 19 -18 32 -37 29 -42
-17 -28 31 -77 53 -53 10 11 4 22 -25 57 -20 24 -42 52 -48 63 -11 20 -44 33
-44 18z M1700 3291 c0 -5 10 -11 23 -14 12 -3 33 -8 47 -12 23 -6 23 -6 -5 14
-31 21 -65 28 -65 12z M1565 3151 c-11 -5 -25 -6 -31 -4 -6 2 -14 -3 -18 -12
-3 -9 -10 -14 -16 -10 -9 5 -30 -29 -50 -80 l-10 -26 34 26 c24 18 35 22 38
13 5 -13 -38 -71 -142 -193 -33 -38 -60 -77 -60 -86 0 -9 -7 -19 -14 -22 -8
-3 -17 -23 -21 -44 -9 -58 -23 -126 -30 -145 -5 -12 -2 -18 7 -18 16 0 43 74
54 144 5 39 15 57 48 90 24 22 52 48 65 56 12 8 23 22 24 31 2 9 20 36 41 60
l38 44 -33 -47 c-34 -50 -33 -77 1 -40 12 12 24 22 29 22 4 0 24 27 44 60 37
63 37 68 -3 45 -34 -20 -46 -19 -27 3 8 9 20 36 26 58 6 23 18 45 26 48 8 3
15 12 15 21 0 17 -5 17 -35 6z M1382 3031 c-18 -22 -32 -43 -32 -46 0 -3 -15
-30 -34 -60 -30 -46 -76 -132 -76 -142 0 -2 5 -3 10 -3 6 0 16 12 23 28 7 15
40 68 74 118 54 79 85 144 71 144 -3 0 -19 -18 -36 -39z M2772 2695 l3 -366
242 1 c265 1 316 9 374 57 86 73 78 239 -16 302 l-35 24 34 37 c39 44 51 84
41 145 -9 60 -41 104 -100 134 -49 26 -54 26 -297 29 l-248 3 2 -366z m369
225 c71 0 99 -21 99 -73 0 -61 -24 -72 -166 -75 l-124 -4 0 75 c0 40 3 77 8
81 4 5 34 5 66 2 32 -3 85 -6 117 -6z m95 -298 c48 -26 47 -118 -1 -140 -16
-7 -78 -12 -155 -12 l-130 0 0 78 c0 43 3 82 8 86 11 12 254 1 278 -12z M3570
2695 c0 -201 3 -366 8 -366 12 -2 33 -2 310 -1 l262 2 0 70 0 70 -200 0 -200
0 0 80 0 80 165 0 165 0 0 70 0 70 -165 0 -165 0 0 75 0 75 190 0 190 0 0 70
0 70 -280 0 -280 0 0 -365z M4190 2990 l0 -70 115 0 115 0 0 -295 0 -295 90 0
90 0 0 295 0 295 110 0 110 0 0 70 0 70 -315 0 -315 0 0 -70z M4904 2698 l1
-363 93 -3 92 -3 0 151 0 150 155 0 155 0 0 -148 c0 -82 2 -151 4 -153 2 -2
43 -3 90 -1 l86 3 0 365 0 364 -90 0 -90 0 0 -140 0 -140 -155 0 -155 0 0 140
0 140 -93 0 -94 0 1 -362z M5740 2695 c0 -318 2 -365 15 -365 8 0 138 0 288
-1 l272 0 3 71 3 70 -201 0 -200 0 0 80 0 80 170 0 170 0 0 70 0 70 -170 0
-170 0 0 75 0 75 190 0 190 0 0 70 0 70 -280 0 -280 0 0 -365z M6440 2693 l0
-368 272 2 273 3 3 70 3 70 -186 0 -185 0 0 295 0 295 -90 0 -90 0 0 -367z
M7140 2995 c0 -4 16 -25 35 -48 19 -22 35 -47 35 -54 0 -7 4 -13 10 -13 5 0
28 -36 50 -79 40 -80 69 -116 55 -70 -18 64 -48 134 -64 155 -24 31 -121 118
-121 109z M1586 2924 c-55 -77 -70 -108 -42 -85 19 16 106 134 106 145 0 19
-22 -1 -64 -60z M8200 2924 c0 -13 51 -75 69 -83 64 -28 135 -99 146 -146 7
-29 7 -29 -8 -10 -8 11 -19 17 -23 13 -4 -5 1 -17 12 -29 17 -18 19 -38 19
-189 0 -93 3 -172 8 -176 4 -4 7 15 7 43 0 38 4 52 16 57 14 5 14 9 3 22 -9
11 -10 17 -2 22 6 4 14 23 16 42 3 19 3 6 1 -30 -2 -36 -7 -84 -10 -106 -4
-26 -2 -44 5 -48 6 -4 11 -2 11 4 0 6 5 8 10 5 8 -5 8 -11 0 -20 -7 -9 -6 -16
5 -25 8 -7 14 -19 13 -27 -2 -7 8 -19 21 -26 14 -6 28 -24 32 -40 4 -16 3 -25
-2 -21 -18 10 -9 -48 12 -77 35 -50 9 -32 -57 40 -53 57 -70 69 -94 69 -24 -1
-28 -4 -20 -18 14 -26 129 -130 178 -161 24 -15 54 -39 67 -53 30 -32 55 -34
55 -3 0 14 -15 35 -42 58 -30 27 -42 45 -44 68 -2 31 9 41 22 20 3 -6 1 -14
-5 -18 -9 -6 -6 -15 8 -32 27 -33 34 -20 17 32 -8 24 -17 66 -19 93 -3 27 -10
52 -15 55 -24 14 -61 146 -62 213 0 46 -13 70 -24 46 -3 -7 -3 3 0 23 4 22 -2
62 -16 107 -17 56 -31 80 -66 114 -24 23 -44 51 -44 60 0 12 -21 28 -66 49
-36 17 -81 45 -100 61 -19 17 -34 27 -34 22z m340 -530 c0 -7 -5 -16 -10 -19
-6 -4 -7 -23 -3 -47 4 -30 3 -39 -5 -34 -7 4 -12 35 -12 79 1 65 2 70 15 53 8
-11 15 -25 15 -32z m16 -149 c14 -44 0 -47 -15 -4 -13 38 -13 39 -3 39 4 0 12
-16 18 -35z M2244 2855 c-7 -16 -26 -66 -44 -110 -17 -44 -36 -96 -41 -115
-17 -60 -31 -84 -73 -122 -44 -39 -44 -53 -3 -43 48 12 109 76 143 150 35 73
47 68 17 -7 -31 -80 -83 -143 -160 -194 -28 -19 -54 -41 -57 -49 -7 -19 -5
-19 44 1 23 9 44 13 48 9 18 -17 5 -113 -24 -190 -17 -44 -34 -109 -38 -144
-9 -92 -32 -133 -78 -144 -46 -11 -47 -17 -8 -40 42 -25 88 -126 101 -226 9
-69 8 -209 -3 -290 -2 -17 2 -25 17 -27 80 -11 98 -17 127 -37 18 -12 45 -35
61 -50 25 -26 33 -28 88 -25 79 4 88 18 12 18 -63 0 -58 14 8 25 29 5 45 1 76
-18 35 -22 46 -24 152 -22 107 3 118 1 185 -27 39 -17 105 -36 146 -43 41 -7
105 -21 142 -31 37 -10 71 -15 75 -11 21 22 -83 72 -179 87 -54 8 -180 52
-204 71 -18 14 -127 26 -204 21 -72 -4 -72 -4 -105 32 -36 40 -69 45 -154 25
-38 -8 -52 -6 -112 18 -63 26 -69 30 -64 53 7 36 6 69 -4 202 -7 99 -14 127
-41 187 l-32 70 22 32 c18 24 25 52 31 123 5 63 16 109 33 149 47 105 51 159
20 241 -3 8 18 41 45 74 88 106 126 217 97 286 -9 21 -16 47 -16 57 0 11 -4
19 -10 19 -5 0 -10 -15 -10 -32 0 -18 -4 -39 -9 -46 -14 -23 -22 13 -10 47 6
16 9 40 7 53 -3 22 -4 21 -14 -7z m-9 -152 c-18 -42 -25 -52 -25 -34 0 14 28
71 35 71 3 0 -2 -17 -10 -37z M1465 2735 c-3 -8 -7 -22 -10 -30 -2 -9 2 -15
10 -15 10 0 15 10 15 30 0 32 -8 40 -15 15z M7748 2700 c-63 -65 -49 -106 65
-204 94 -82 102 -69 29 46 -13 20 -21 42 -17 48 3 6 3 9 -2 8 -14 -4 -75 70
-68 82 11 17 24 11 31 -14 8 -33 36 -57 53 -46 12 7 9 18 -14 64 -16 31 -31
56 -34 56 -3 0 -23 -18 -43 -40z M7870 2706 c0 -8 5 -18 10 -21 6 -3 10 1 10
9 0 8 -4 18 -10 21 -5 3 -10 -1 -10 -9z M7395 2679 c-3 -13 3 -64 15 -112 11
-48 20 -93 19 -100 -1 -19 -57 106 -58 130 -1 21 -18 40 -27 30 -6 -6 23 -105
37 -127 5 -8 18 -34 30 -57 21 -42 45 -61 32 -25 -6 15 -3 14 17 -3 l23 -20
-7 25 c-5 14 -12 45 -16 70 -9 50 -50 203 -55 209 -2 2 -7 -7 -10 -20z M8546
2623 c4 -16 11 -36 15 -45 5 -9 9 -37 9 -62 0 -59 19 -146 32 -146 6 0 8 13 5
33 -3 17 -9 64 -12 102 -6 70 -30 145 -47 145 -4 0 -5 -12 -2 -27z M7586 2598
c9 -31 14 -39 54 -87 47 -56 60 -52 18 7 -19 26 -40 59 -48 75 -16 33 -34 36
-24 5z M7950 2607 c0 -3 16 -31 35 -63 20 -33 35 -71 35 -89 0 -31 43 -105 60
-105 14 0 12 16 -4 29 -7 6 -16 31 -18 55 -7 59 -43 131 -79 157 -16 11 -29
18 -29 16z M7853 2585 c-13 -14 -7 -25 14 -25 14 0 18 26 6 33 -5 3 -13 -1
-20 -8z M7740 2455 c13 -14 26 -23 28 -20 7 7 -29 45 -41 45 -6 0 0 -11 13
-25z M8200 2394 c0 -17 65 -120 82 -130 6 -4 14 -1 18 6 5 8 13 5 26 -12 19
-24 54 -44 54 -30 0 13 -70 63 -79 57 -6 -3 -18 6 -28 20 -10 15 -28 39 -41
55 -13 16 -21 34 -17 40 3 5 1 10 -4 10 -6 0 -11 -7 -11 -16z M7860 2362 c0
-10 33 -42 44 -42 9 0 -27 49 -36 50 -5 0 -8 -4 -8 -8z M1620 2339 c-19 -10
-44 -19 -56 -19 -21 0 -103 -49 -124 -76 -19 -22 -3 -30 20 -9 28 26 86 47
137 50 22 1 46 6 52 10 7 4 17 2 24 -3 7 -5 23 -12 37 -14 14 -3 34 -9 44 -13
17 -7 18 -5 12 18 -6 25 -5 25 49 24 39 -1 60 4 71 15 15 15 13 17 -27 22
-132 16 -204 14 -239 -5z M8670 2298 c0 -8 6 -37 14 -64 8 -27 18 -80 22 -119
3 -38 12 -86 20 -105 7 -19 15 -44 17 -55 4 -19 4 -20 12 -1 5 11 3 49 -3 88
-7 38 -12 85 -12 106 -1 20 -7 48 -15 62 -8 14 -14 34 -15 46 0 11 -9 29 -20
39 -16 15 -20 15 -20 3z M1938 2268 c-10 -15 -27 -29 -38 -33 -11 -3 -20 -14
-20 -24 0 -10 -7 -38 -16 -62 -16 -47 -20 -170 -6 -196 7 -12 11 -9 21 17 6
18 11 44 11 56 0 26 10 30 27 13 8 -8 16 -4 27 14 13 20 16 46 14 133 -3 106
-3 108 -20 82z M1996 2281 c-5 -7 -10 -54 -13 -105 -2 -50 -5 -112 -7 -138 -3
-54 6 -62 23 -20 14 33 11 285 -3 263z M7924 2265 c21 -16 32 -13 21 4 -3 6
-14 11 -23 11 -15 -1 -15 -2 2 -15z M1706 2185 c-4 -14 -11 -23 -16 -20 -12 8
-13 -5 -1 -24 5 -7 5 -28 1 -47 -4 -19 -4 -37 1 -40 5 -3 9 -14 9 -25 0 -10 4
-19 9 -19 4 0 8 12 8 28 -1 15 3 60 7 100 5 46 5 72 -2 72 -5 0 -13 -11 -16
-25z M8041 2187 c-16 -43 -19 -96 -6 -107 19 -15 22 -4 23 68 1 66 -3 76 -17
39z M3646 2189 c-79 -19 -126 -76 -126 -153 0 -53 47 -101 118 -122 143 -41
163 -54 142 -94 -20 -38 -117 -37 -193 2 -22 11 -40 18 -42 16 -10 -11 -34
-82 -30 -88 3 -5 30 -18 61 -29 189 -71 376 41 309 183 -19 39 -69 69 -145 86
-104 24 -134 55 -92 93 24 22 110 22 159 2 19 -8 37 -15 38 -15 2 0 10 20 18
44 l15 45 -37 15 c-50 20 -146 27 -195 15z M2620 1950 l0 -240 55 0 55 0 0 70
0 70 38 0 c47 0 61 -10 106 -82 l37 -58 59 0 c33 0 60 2 60 5 0 3 -21 37 -47
76 l-47 71 25 22 c80 65 86 181 15 252 -43 43 -89 54 -233 54 l-123 0 0 -240z
m239 139 c36 -13 51 -35 51 -78 0 -51 -32 -71 -112 -71 l-68 0 0 73 c0 41 3
77 7 80 10 11 87 8 122 -4z M3100 1950 l0 -240 180 0 180 0 0 45 0 45 -125 0
-125 0 0 50 0 50 105 0 105 0 0 50 0 50 -105 0 -105 0 0 50 0 50 120 0 120 0
0 45 0 45 -175 0 -175 0 0 -240z M3960 1952 c0 -131 2 -241 4 -243 2 -2 29 -2
60 -1 l56 4 0 239 0 239 -60 0 -60 0 0 -238z M4180 1948 l0 -243 147 5 c126 5
154 9 188 27 178 95 159 372 -30 437 -35 11 -84 16 -177 16 l-128 0 0 -242z
m286 122 c81 -51 76 -203 -9 -246 -17 -10 -62 -19 -99 -22 l-68 -5 0 153 0
153 72 -7 c44 -4 84 -14 104 -26z M4710 1950 l0 -240 180 0 180 0 0 45 0 45
-125 0 -125 0 0 50 0 50 105 0 c63 0 105 4 106 10 1 6 1 21 1 35 0 58 5 55
-107 55 l-105 0 0 50 0 50 120 0 120 0 0 45 0 45 -175 0 -175 0 0 -240z M5150
1950 l0 -240 55 0 55 0 0 141 0 141 71 -94 c39 -51 88 -114 107 -140 34 -46
39 -48 84 -48 l48 0 0 240 0 240 -55 0 -54 0 -3 -140 -3 -139 -109 139 -109
140 -43 0 -44 0 0 -240z M5630 2145 l0 -44 68 -3 67 -3 3 -192 2 -193 55 0 55
0 0 195 0 195 70 0 70 0 0 45 0 45 -195 0 -195 0 0 -45z M6086 2165 c-4 -14
-6 -122 -6 -240 l1 -215 60 0 59 0 -2 238 -3 237 -51 3 c-48 3 -52 1 -58 -23z
M6437 2183 c-8 -12 -197 -464 -197 -469 0 -3 25 -4 56 -2 l56 3 18 45 18 45
104 3 105 3 21 -51 21 -50 55 0 c31 0 56 3 56 6 0 5 -158 376 -191 447 -11 24
-17 27 -65 27 -29 0 -55 -3 -57 -7z m92 -202 c17 -40 31 -77 31 -81 0 -6 -119
-2 -127 4 -2 2 6 25 46 130 7 16 13 27 15 25 2 -2 18 -37 35 -78z M6800 1950
l0 -240 170 0 170 0 0 45 0 45 -115 0 -115 0 0 195 0 195 -55 0 -55 0 0 -240z
M7940 2171 c-6 -11 -6 -22 -1 -25 5 -3 11 5 13 19 6 30 2 32 -12 6z M8130
2153 c0 -5 11 -20 25 -33 14 -13 25 -19 25 -13 0 5 -11 20 -25 33 -14 13 -25
19 -25 13z M1180 2128 c0 -7 -18 -47 -41 -90 -22 -43 -36 -78 -31 -78 11 0 57
49 70 75 16 33 25 105 13 105 -6 0 -11 -5 -11 -12z M1779 2098 c-1 -18 -1 -62
0 -98 1 -36 -2 -78 -7 -95 l-9 -30 -6 26 c-4 15 -14 30 -23 33 -13 5 -15 -5
-12 -79 2 -56 -1 -86 -8 -89 -13 -5 -35 -86 -27 -99 3 -4 12 -6 20 -3 11 5 13
1 7 -17 -8 -26 -9 -13 12 -155 17 -112 15 -154 -13 -229 -4 -10 11 -13 53 -12
80 0 126 17 135 49 6 21 7 22 9 5 1 -11 2 -26 1 -32 -3 -18 13 -16 37 5 29 25
51 130 56 275 4 127 1 167 -14 167 -9 0 -19 -113 -20 -235 -2 -69 -3 -75 -10
-40 -4 22 -9 80 -11 129 -4 107 -21 196 -43 228 -16 22 -17 18 -12 -77 3 -67
2 -85 -3 -55 -25 135 -44 206 -60 220 -14 12 -20 38 -25 100 -3 47 -6 97 -6
113 0 39 -20 34 -21 -5z m172 -771 c-13 -13 -15 1 -4 30 7 17 8 17 11 -1 2
-10 -1 -23 -7 -29z M7500 2079 c0 -60 91 -301 108 -285 6 7 -23 105 -53 178
-13 31 -27 73 -31 92 -8 47 -24 56 -24 15z M8199 2093 c13 -25 60 -68 66 -61
4 3 26 -15 50 -41 24 -25 42 -48 40 -50 -2 -2 -10 3 -18 10 -51 50 -70 61 -78
48 -8 -11 -14 -9 -30 10 -11 13 -24 31 -29 40 -5 9 -12 13 -15 9 -4 -4 8 -32
26 -62 24 -40 39 -55 51 -52 10 2 34 -12 58 -36 23 -21 61 -51 83 -65 23 -15
47 -32 52 -37 6 -6 36 -29 68 -51 34 -23 67 -54 77 -75 10 -19 27 -46 39 -59
12 -13 21 -29 21 -35 0 -6 22 -42 50 -81 27 -38 63 -96 80 -129 17 -32 33 -56
36 -54 11 11 -27 110 -65 168 -56 89 -129 255 -117 268 6 5 29 -42 51 -103 24
-69 52 -101 97 -109 l37 -7 -5 42 c-6 48 -31 102 -43 94 -13 -8 -60 44 -95
105 -25 44 -42 60 -86 82 -30 15 -71 32 -91 38 -19 5 -53 25 -75 43 -21 19
-64 50 -94 70 -30 20 -74 50 -97 67 -48 34 -58 37 -44 13z m400 -272 c8 -4 21
-17 30 -30 l15 -23 -35 21 c-19 11 -41 21 -50 21 -16 0 -79 51 -79 64 0 4 24
-5 53 -19 28 -15 58 -30 66 -34z M983 2013 c-90 -131 -143 -262 -144 -360 -1
-32 -11 -90 -24 -129 -25 -76 -41 -190 -32 -226 9 -34 58 -52 102 -38 19 6 42
21 51 33 39 57 74 113 74 121 0 6 10 20 22 33 l21 23 -28 0 c-24 0 -46 -17
-112 -84 -73 -74 -84 -82 -93 -66 -7 12 -5 33 5 67 8 26 15 64 15 84 0 20 7
53 15 72 8 20 15 54 15 75 0 39 46 229 60 247 20 26 109 205 101 205 -4 0 -26
-26 -48 -57z M1339 1984 c-30 -25 -73 -54 -96 -64 -53 -24 -118 -82 -155 -139
-29 -46 -35 -71 -18 -71 6 0 10 7 10 15 0 8 4 15 9 15 5 0 7 -9 4 -20 -9 -34
5 -22 28 23 36 70 66 102 137 148 37 23 71 50 76 58 5 8 23 28 40 43 52 48 21
41 -35 -8z M8021 1964 c-14 -48 -10 -78 14 -109 l17 -20 -8 20 c-9 24 -8 45 1
101 10 57 -8 63 -24 8z M1560 1957 c0 -14 7 -30 15 -37 18 -15 19 -42 3 -58
-9 -9 -8 -12 8 -12 16 0 16 -2 4 -10 -12 -8 -13 -13 -2 -30 9 -15 10 -26 1
-41 -12 -24 -4 -38 13 -21 14 14 28 16 28 3 0 -5 -9 -13 -21 -16 -11 -4 -18
-12 -16 -19 3 -7 -4 -21 -14 -30 -13 -11 -18 -24 -14 -36 12 -39 8 -115 -8
-145 l-16 -30 -1 28 c0 38 -15 34 -29 -10 -7 -21 -15 -44 -18 -52 -4 -10 1
-11 18 -6 l24 6 -25 -20 c-28 -23 -30 -24 -49 -12 -11 7 -10 12 5 29 29 34 55
112 44 133 -6 10 -7 24 -4 33 13 35 -9 34 -27 -1 -11 -21 -15 -39 -9 -43 15
-9 -5 -74 -39 -123 -36 -53 -43 -58 -80 -61 -22 -2 -71 -36 -71 -50 0 -6 80
13 104 25 14 7 10 0 -12 -20 -19 -19 -43 -31 -60 -31 -33 0 -59 -15 -43 -24 6
-4 48 -6 94 -4 73 3 86 0 111 -19 16 -13 38 -23 50 -23 21 -1 21 -1 1 -12 -11
-6 -33 -24 -48 -40 -28 -27 -57 -37 -57 -19 0 4 12 20 26 35 18 17 22 26 13
27 -8 0 -66 5 -129 10 -156 14 -205 14 -275 2 -32 -6 -102 -8 -155 -6 -52 3
-143 5 -202 6 -99 1 -109 -1 -147 -26 -22 -15 -49 -27 -60 -27 -10 0 -38 -9
-62 -20 -24 -11 -56 -20 -71 -20 -32 0 -58 -9 -58 -20 0 -17 68 -20 110 -5 23
8 64 15 91 15 27 0 49 5 49 10 0 6 11 8 25 4 25 -6 36 10 13 19 -8 4 -7 6 3 6
9 1 20 -6 23 -15 3 -8 11 -12 17 -9 6 4 8 13 5 20 -3 8 2 14 12 14 9 0 31 3
48 7 38 7 85 -13 63 -27 -8 -5 -33 -9 -56 -9 -24 0 -43 -4 -43 -10 0 -5 23
-10 52 -10 48 0 50 -1 32 -15 -19 -14 -19 -14 1 -15 12 0 45 6 75 14 30 7 75
17 100 20 40 6 43 5 25 -7 -21 -14 -82 -31 -147 -42 -21 -3 -38 -10 -38 -16 0
-6 13 -8 30 -6 16 3 46 1 67 -5 64 -16 337 -28 345 -15 6 9 8 9 8 -1 0 -9 17
-11 68 -7 70 5 125 22 117 35 -3 4 3 14 12 21 14 12 15 11 8 -10 -7 -23 -6
-24 26 -17 18 3 37 13 42 21 6 12 13 13 28 4 17 -8 23 -7 34 8 13 17 14 17 28
-1 14 -19 15 -19 28 2 14 22 39 30 39 12 0 -5 5 -10 11 -10 5 0 7 5 4 10 -3 6
0 10 9 10 8 0 16 -6 19 -12 3 -10 8 -10 21 1 13 11 22 11 40 3 13 -6 36 -9 50
-8 15 2 28 0 31 -4 7 -11 65 -10 65 1 0 5 20 9 45 9 46 0 55 9 32 32 -7 7 -23
28 -36 46 -19 27 -29 32 -62 32 -22 0 -53 -7 -70 -15 -16 -9 -34 -13 -38 -10
-13 8 -42 -6 -35 -16 8 -13 -16 -40 -28 -33 -5 3 -7 16 -4 28 4 16 -2 25 -25
39 -17 9 -43 17 -58 17 -14 0 -38 8 -51 18 l-25 17 56 6 c67 7 92 27 108 84
16 59 14 210 -3 224 -18 15 -31 152 -17 179 6 11 13 39 16 63 3 24 8 63 11 87
4 28 2 42 -5 42 -6 0 -11 -6 -11 -14 0 -25 -20 -28 -28 -5 l-9 23 -6 -23 c-3
-13 -1 -34 4 -48 6 -15 6 -30 0 -37 -4 -6 -5 -20 0 -31 11 -28 11 -45 0 -45
-16 0 -26 42 -26 114 0 48 -4 71 -13 74 -9 3 -11 -4 -7 -25 6 -28 6 -28 -9 3
-19 42 -36 52 -36 21z m57 -297 c-3 -23 -1 -38 4 -34 5 3 9 0 9 -5 0 -6 -5
-11 -10 -11 -7 0 -8 -13 -4 -35 4 -23 2 -35 -5 -35 -6 0 -11 1 -11 3 -10 53
-9 114 1 133 18 34 22 30 16 -16z m-27 -199 c-11 -22 -30 -28 -30 -11 0 6 8
23 17 37 14 21 19 23 21 11 2 -10 -2 -26 -8 -37z m81 6 c-7 -7 -7 -15 -1 -22
11 -13 -14 -110 -30 -120 -13 -8 -13 21 0 46 6 10 11 39 12 64 0 25 4 45 9 45
5 0 10 8 10 18 1 15 2 15 6 -2 3 -10 0 -23 -6 -29z m-163 -87 c-7 -11 -19 -22
-28 -25 -8 -4 -4 5 9 19 29 31 36 33 19 6z m102 -50 c0 -5 -9 -10 -21 -10 -11
0 -17 5 -14 10 3 6 13 10 21 10 8 0 14 -4 14 -10z m-124 -21 c3 -5 -6 -9 -20
-9 -24 0 -41 12 -30 23 7 7 43 -3 50 -14z m-582 -138 c6 -10 -26 -21 -63 -21
-41 0 -2 24 46 29 6 0 14 -3 17 -8z m196 -41 c11 -7 5 -10 -25 -10 -22 0 -47
-4 -55 -9 -8 -6 -18 -7 -24 -4 -5 4 8 12 30 19 50 15 56 16 74 4z m368 -29 c3
-8 -1 -12 -9 -9 -7 2 -15 10 -17 17 -3 8 1 12 9 9 7 -2 15 -10 17 -17z M1022
1957 c-11 -13 -42 -81 -42 -92 0 -3 4 -5 9 -5 9 0 54 101 48 107 -2 2 -9 -3
-15 -10z M8190 1962 c0 -14 67 -88 74 -81 3 3 -8 20 -24 38 -17 18 -30 36 -30
42 0 5 -4 9 -10 9 -5 0 -10 -4 -10 -8z M1020 1795 c-20 -24 -80 -167 -74 -177
3 -4 -2 -18 -10 -30 -15 -21 -22 -58 -11 -58 2 0 22 19 45 43 22 23 37 34 34
25 -10 -29 4 -21 21 12 8 16 15 45 15 65 0 20 9 55 20 77 11 23 20 45 20 50 0
14 -47 9 -60 -7z M1419 1782 c-15 -16 -35 -72 -25 -72 2 0 16 20 29 45 26 46
24 57 -4 27z M8500 1721 c0 -13 41 -41 59 -41 10 0 8 7 -9 25 -24 25 -50 33
-50 16z M1333 1630 c-75 -57 -106 -70 -161 -70 -53 0 -112 -16 -112 -31 0 -13
130 -10 170 4 59 22 196 137 162 137 -4 0 -30 -18 -59 -40z M8530 1624 c0 -6
35 -51 83 -107 26 -30 28 -30 21 -7 -12 43 -104 144 -104 114z M8550 1527 c0
-3 13 -28 30 -53 16 -26 32 -62 36 -80 5 -29 54 -90 54 -68 0 5 -9 17 -20 27
-15 12 -19 24 -14 42 4 16 -1 36 -14 57 -21 34 -72 87 -72 75z M1084 1501 c4
-6 2 -11 -3 -11 -6 0 -11 -5 -11 -11 0 -6 8 -9 18 -7 20 4 23 29 3 36 -8 3
-11 0 -7 -7z M8260 1462 c0 -17 149 -93 228 -115 53 -16 55 -15 51 21 0 4 -14
8 -30 9 -52 5 -142 34 -196 65 -29 16 -53 25 -53 20z M1360 1445 c-14 -8 -35
-14 -46 -15 -12 0 -32 -9 -45 -20 l-24 -21 32 16 c37 18 47 19 38 5 -9 -15 10
-12 50 7 19 9 35 23 35 30 0 16 -9 16 -40 -2z M8654 1421 c5 -38 32 -90 48
-91 9 0 -1 28 -19 55 -7 11 -13 29 -13 42 0 12 -5 25 -10 28 -7 5 -9 -7 -6
-34z M1012 1390 c-6 -11 -12 -26 -12 -33 0 -7 -11 -24 -25 -37 -33 -31 -32
-45 1 -23 21 13 64 87 64 109 0 11 -17 2 -28 -16z M1207 1349 c-9 -6 -14 -15
-11 -21 4 -6 2 -8 -4 -4 -6 3 -13 2 -17 -4 -3 -5 3 -10 14 -10 12 0 21 7 21
15 0 7 8 19 18 24 9 6 13 10 7 10 -5 0 -18 -4 -28 -10z M7282 1330 c-24 -11
-58 -30 -75 -42 -46 -33 -94 -48 -162 -49 -92 -2 -117 -10 -142 -48 -30 -45
-29 -61 2 -27 25 27 34 29 152 30 71 1 72 1 50 -16 -12 -10 -30 -18 -39 -18
-10 0 -18 -4 -18 -10 0 -5 8 -9 18 -8 9 1 30 0 46 0 l29 -2 -27 -25 c-40 -37
-33 -61 8 -30 11 8 29 15 41 15 12 0 26 5 31 10 16 16 184 29 184 14 0 -15 20
-23 85 -30 40 -5 69 -1 120 15 37 12 88 27 114 34 85 21 463 3 497 -24 5 -4
23 -5 39 -1 16 5 25 11 20 14 -25 15 -146 39 -218 43 -44 2 -83 8 -86 12 -16
22 -76 35 -175 39 -79 2 -113 8 -126 19 -9 8 -22 15 -29 15 -6 0 -23 12 -37
27 -21 23 -32 27 -71 24 -76 -5 -133 -63 -86 -90 16 -8 15 -11 -7 -31 l-25
-21 38 5 c24 3 35 1 31 -5 -3 -6 2 -17 12 -24 18 -14 18 -14 -4 -15 -12 0 -42
9 -67 21 -33 16 -55 19 -87 15 l-43 -6 53 26 c58 29 77 64 49 92 -14 13 -22
14 -59 3 -24 -7 -53 -19 -65 -27 -19 -12 -23 -12 -23 -1 0 16 66 50 128 67 23
6 42 15 42 20 0 17 -73 10 -118 -10z m-96 -125 c-10 -8 -23 -12 -28 -9 -14 9
2 24 25 24 21 -1 21 -1 3 -15z M8578 1342 c-27 -6 -21 -19 14 -31 35 -13 41
-11 32 12 -7 18 -22 25 -46 19z M8670 1297 c1 -17 22 -42 48 -56 33 -18 27 1
-13 36 -19 17 -35 26 -35 20z M2080 1243 c1 -5 21 -24 45 -43 33 -26 41 -37
33 -47 -7 -9 -7 -14 3 -16 63 -17 131 -42 163 -60 31 -16 64 -22 143 -25 69
-3 103 -1 103 6 0 6 -21 14 -47 17 -27 3 -58 10 -71 16 -13 5 -32 9 -43 9 -11
0 -40 9 -65 20 -24 11 -54 25 -66 31 -13 5 -41 21 -63 34 -100 61 -136 76
-135 58z M1975 1190 c8 -16 16 -33 16 -37 4 -23 13 -34 28 -32 9 1 23 -1 31
-4 55 -21 139 -47 153 -47 9 0 17 5 17 10 0 6 -5 10 -11 10 -7 0 -36 16 -65
35 -29 19 -55 35 -59 35 -3 0 -26 14 -50 30 -24 17 -51 30 -60 30 -14 0 -14
-3 0 -30z M2555 1162 c-79 -4 -125 -13 -120 -23 7 -11 121 -11 185 0 63 11 14
28 -65 23z M6764 1115 c-18 -14 -16 -15 21 -9 58 10 78 23 34 24 -19 0 -44 -7
-55 -15z M640 1095 c-24 -14 -24 -14 -3 -15 28 0 53 10 53 21 0 13 -21 10 -50
-6z M2650 1101 c-40 -11 -6 -24 74 -28 38 -1 105 -7 150 -13 98 -12 116 -12
116 -2 0 5 -44 18 -97 30 -96 22 -194 27 -243 13z M6968 1083 c-32 -8 -58 -19
-58 -24 0 -5 4 -9 8 -9 20 0 112 31 117 40 8 12 5 12 -67 -7z M10675 758 c-25
-71 -102 -148 -175 -175 l-55 -21 56 -25 c96 -42 145 -97 190 -212 l11 -30 17
45 c37 104 95 166 180 197 28 10 51 20 51 23 0 3 -23 14 -51 24 -68 24 -138
94 -169 169 -13 31 -26 57 -30 57 -3 0 -15 -24 -25 -52z"/>
</g>
</svg>
